{"glyphs":{"0":{"ha":1275,"x_min":83,"x_max":1192,"o":"m 638 -21 q 426 -15 482 -21 q 337 11 371 -10 q 235 97 303 32 q 124 218 150 181 q 90 305 97 256 q 83 489 83 354 q 90 673 83 624 q 124 759 97 722 q 236 878 151 796 q 333 962 300 942 q 423 987 367 982 q 638 992 479 992 q 852 987 796 992 q 942 962 908 982 q 1039 878 975 942 q 1151 759 1124 796 q 1185 673 1178 722 q 1192 489 1192 624 q 1185 306 1192 356 q 1151 219 1178 257 q 1040 97 1125 182 q 941 11 975 32 q 851 -15 907 -10 q 638 -21 796 -21 m 638 118 q 811 121 767 118 q 878 136 856 124 q 938 186 900 149 q 1022 279 1001 250 q 1048 347 1043 308 q 1053 488 1053 385 q 1048 635 1053 596 q 1022 701 1043 674 q 936 789 1001 729 q 878 836 900 825 q 813 850 857 847 q 638 853 768 853 q 463 850 507 853 q 397 836 418 847 q 339 789 375 825 q 253 698 274 726 q 227 631 232 669 q 222 488 222 593 q 227 347 222 385 q 253 279 232 308 q 338 186 274 250 q 397 136 375 149 q 464 121 419 124 q 638 118 508 118 z "},"1":{"ha":889,"x_min":-1,"x_max":833,"o":"m 488 140 l 833 140 l 833 0 l 0 0 l 0 140 l 347 140 l 347 785 l 181 608 l -1 608 l 347 974 l 488 974 l 488 140 z "},"2":{"ha":1261,"x_min":83,"x_max":1179,"o":"m 222 138 q 267 138 229 138 q 544 139 306 139 q 1179 139 782 139 l 1179 0 l 83 0 l 83 125 q 109 244 83 210 q 237 310 135 278 q 660 424 339 343 l 819 469 l 1000 522 q 1032 549 1026 533 q 1038 611 1038 564 q 1031 669 1038 651 q 1000 710 1025 686 q 897 794 975 733 q 825 837 849 826 q 765 850 801 847 q 626 853 728 853 q 481 850 518 853 q 422 837 443 847 q 361 793 400 826 q 258 701 283 726 q 227 651 233 675 q 221 571 221 628 l 83 571 l 83 572 q 90 701 83 665 q 126 769 97 738 q 247 878 156 801 q 355 962 321 942 q 439 987 389 982 q 626 992 489 992 q 815 987 764 992 q 900 962 865 982 q 1010 879 935 942 q 1135 765 1106 797 q 1172 705 1165 733 q 1178 597 1178 676 q 1168 484 1178 515 q 1124 435 1158 453 q 988 382 1090 417 q 876 347 939 365 q 658 285 813 328 q 339 201 417 222 q 242 168 261 179 q 222 138 222 157 m 936 501 l 983 515 l 936 501 z "},"3":{"ha":1275,"x_min":83,"x_max":1203,"o":"m 224 335 q 226 256 224 276 q 235 224 228 236 q 268 186 243 211 q 331 136 306 149 q 410 121 356 124 q 625 118 464 118 q 858 121 800 118 q 943 136 917 124 q 1007 186 969 149 q 1040 222 1032 211 q 1051 247 1049 233 q 1053 293 1053 260 q 1051 317 1053 310 q 1038 336 1049 324 q 1006 367 1026 349 q 942 415 967 403 q 864 429 917 426 q 654 432 811 432 l 446 432 l 446 571 l 657 571 q 856 574 803 571 q 931 586 908 576 q 996 629 953 596 q 1036 663 1024 650 q 1049 689 1049 675 q 1028 730 1049 707 q 957 790 1007 753 q 883 838 910 826 q 809 851 857 849 q 625 854 761 854 q 439 851 486 854 q 369 838 392 849 q 311 790 347 826 q 247 722 263 742 q 228 685 232 703 q 224 621 224 667 l 83 621 q 89 726 83 696 q 117 783 94 756 q 208 879 139 811 q 308 963 274 943 q 400 988 342 983 q 625 993 458 993 q 867 988 804 993 q 965 962 931 982 q 1067 879 1000 942 q 1171 766 1139 810 q 1203 688 1203 722 q 1182 629 1203 658 q 1115 558 1161 600 q 1058 503 1078 519 q 1192 317 1192 410 q 1188 211 1192 239 q 1170 163 1185 183 q 1110 99 1156 143 q 1005 11 1043 32 q 897 -15 967 -10 q 625 -21 828 -21 q 369 -15 435 -21 q 267 11 303 -10 q 165 97 231 32 q 106 163 121 142 q 88 216 92 185 q 83 335 85 247 l 224 335 z "},"4":{"ha":1208,"x_min":83,"x_max":1153,"o":"m 1153 381 l 1153 240 l 994 240 l 994 0 l 854 0 l 854 240 l 83 240 l 83 381 l 854 972 l 994 972 l 994 381 l 1153 381 m 296 381 l 854 381 l 854 804 l 296 381 z "},"5":{"ha":1275,"x_min":83,"x_max":1192,"o":"m 222 833 l 222 646 q 298 690 260 676 q 394 706 336 703 q 569 710 451 710 q 873 703 786 710 q 1004 676 960 697 q 1108 596 1049 654 q 1167 530 1151 554 q 1187 472 1182 506 q 1190 356 1192 438 q 1187 220 1192 258 q 1168 162 1182 182 q 1110 99 1154 142 q 1001 15 1046 38 q 869 -14 956 -7 q 569 -21 783 -21 q 363 -13 422 -19 q 263 16 303 -7 q 165 97 224 39 q 105 169 119 143 q 86 250 90 196 l 228 250 q 241 216 232 231 q 268 183 250 201 q 328 138 301 150 q 403 122 356 125 q 569 118 450 118 q 837 122 765 118 q 940 137 908 125 q 1007 183 972 149 q 1039 222 1031 207 q 1050 264 1047 236 q 1053 363 1053 292 q 1050 437 1053 415 q 1039 470 1047 458 q 1006 506 1031 482 q 937 550 971 538 q 827 567 903 563 q 565 571 751 571 q 399 567 449 571 q 324 551 350 564 q 265 507 297 539 q 232 470 242 483 q 222 444 222 457 l 222 407 l 83 407 l 83 972 l 1192 972 l 1192 833 l 222 833 z "},"6":{"ha":1276,"x_min":83,"x_max":1193,"o":"m 1110 526 q 1168 462 1153 485 q 1188 409 1183 439 q 1193 310 1193 379 q 1188 207 1193 236 q 1170 160 1183 178 q 1111 99 1157 142 q 1002 15 1047 38 q 871 -14 957 -7 q 571 -21 785 -21 q 364 -13 424 -19 q 265 16 304 -7 q 167 97 225 39 q 109 163 125 139 q 89 217 93 186 q 85 319 85 247 l 83 618 l 83 663 q 92 733 85 708 q 124 786 100 757 q 207 875 147 815 q 313 957 271 935 q 419 986 354 979 q 640 993 485 993 q 865 986 799 993 q 971 957 931 979 q 1071 875 1011 935 q 1161 773 1138 807 q 1190 693 1185 739 l 1044 693 q 1020 731 1036 711 q 968 786 1004 750 q 906 833 933 821 q 826 850 879 846 q 640 854 772 854 q 455 850 508 854 q 374 833 401 846 q 310 786 346 821 q 239 706 253 726 q 222 664 225 686 l 224 576 q 299 620 261 607 q 395 637 338 633 q 571 640 453 640 q 874 634 788 640 q 1006 606 961 628 q 1110 526 1050 585 m 1008 183 q 1041 220 1033 208 q 1051 249 1049 232 q 1053 315 1053 267 q 1050 374 1053 357 q 1040 401 1047 390 q 1007 436 1032 413 q 940 481 972 469 q 831 497 907 493 q 571 501 756 501 q 405 498 454 501 q 329 482 356 494 q 271 438 303 469 q 232 391 239 406 q 224 335 225 376 l 224 319 l 224 315 q 231 237 224 258 q 269 183 238 215 q 330 138 303 150 q 404 122 357 125 q 571 118 451 118 q 838 122 767 118 q 942 137 910 125 q 1008 183 974 149 z "},"7":{"ha":1275,"x_min":83,"x_max":1192,"o":"m 83 972 l 1192 972 l 1192 833 l 615 0 l 453 0 l 1029 833 l 83 833 l 83 972 z "},"8":{"ha":1275,"x_min":83,"x_max":1192,"o":"m 1108 457 q 1166 397 1150 417 q 1187 360 1182 376 q 1192 317 1192 344 q 1187 210 1192 240 q 1168 160 1182 179 q 1110 99 1154 142 q 1001 15 1046 38 q 869 -14 956 -7 q 569 -21 783 -21 q 363 -13 422 -19 q 263 16 303 -7 q 165 97 224 39 q 108 162 124 139 q 88 215 92 185 q 83 317 83 246 q 88 362 83 346 q 109 397 93 378 q 167 457 125 417 q 215 501 193 483 q 165 549 185 529 q 108 610 124 590 q 88 649 92 631 q 83 706 83 668 q 88 775 83 753 q 109 818 93 797 q 167 879 125 839 q 265 958 225 936 q 365 987 304 981 q 569 993 426 993 q 873 987 786 993 q 1004 959 960 981 q 1108 879 1049 938 q 1166 817 1150 838 q 1187 774 1182 796 q 1192 706 1192 751 q 1187 649 1192 668 q 1166 609 1182 629 q 1110 550 1150 589 l 1058 503 q 1108 457 1082 485 m 268 638 q 319 596 297 608 q 374 578 340 583 q 471 571 407 572 l 569 571 q 724 569 679 571 q 878 576 829 571 q 953 595 928 582 q 1007 638 978 608 q 1045 680 1038 668 q 1053 704 1053 692 q 1046 745 1053 732 q 1006 790 1039 758 q 939 835 972 822 q 831 851 906 847 q 569 854 757 854 q 403 851 453 854 q 328 835 354 847 q 269 790 301 822 q 231 745 238 758 q 224 704 224 732 q 231 679 224 690 q 268 638 238 668 m 1007 186 q 1040 222 1032 211 q 1050 246 1047 232 q 1053 293 1053 260 q 1047 325 1053 315 q 1006 367 1040 335 q 951 407 976 394 q 874 425 925 419 q 718 432 824 431 q 569 431 675 431 q 471 432 500 431 q 372 425 407 431 q 317 407 338 419 q 269 368 296 394 q 230 325 236 335 q 224 293 224 315 q 231 235 224 253 q 268 186 238 217 q 329 139 303 151 q 404 122 356 126 q 569 118 453 118 q 833 122 760 118 q 940 139 907 126 q 1007 186 972 151 z "},"9":{"ha":1276,"x_min":83,"x_max":1193,"o":"m 1193 357 l 1193 310 q 1184 240 1192 264 q 1153 186 1176 215 q 1069 97 1129 157 q 964 15 1006 38 q 857 -14 922 -7 q 636 -21 792 -21 q 412 -14 478 -21 q 306 15 346 -7 q 206 97 265 38 q 115 199 139 165 q 86 279 92 233 l 232 279 q 256 242 240 261 q 308 186 272 222 q 370 139 343 151 q 451 122 397 126 q 636 118 504 118 q 822 122 768 118 q 903 139 875 126 q 967 186 931 151 q 1038 266 1024 246 q 1054 308 1051 286 l 1053 396 q 977 352 1015 365 q 881 335 939 339 q 706 332 824 332 q 402 338 489 332 q 271 366 315 344 q 167 446 226 388 q 108 511 124 488 q 88 567 93 535 q 83 675 83 599 q 88 769 83 742 q 106 813 93 796 q 165 874 119 829 q 274 957 229 935 q 406 986 319 979 q 706 993 492 993 q 913 985 853 992 q 1012 956 972 979 q 1110 875 1051 933 q 1167 810 1151 833 q 1188 756 1183 786 q 1192 653 1192 725 l 1193 357 m 1006 535 q 1044 581 1038 567 q 1053 632 1051 594 l 1053 653 q 1046 735 1053 713 q 1007 789 1039 757 q 947 835 974 822 q 872 851 919 847 q 706 854 825 854 q 438 851 510 854 q 335 835 367 847 q 268 789 303 824 q 236 753 244 765 q 225 726 228 742 q 222 675 222 711 q 225 603 222 624 q 236 572 228 583 q 269 536 244 560 q 337 491 304 503 q 445 475 369 479 q 706 471 521 471 q 872 474 822 471 q 947 490 921 478 q 1006 535 974 503 z "}," ":{"ha":1000,"x_min":0,"x_max":0,"o":""},"A":{"ha":1154,"x_min":21,"x_max":1133,"o":"m 981 0 l 831 308 l 324 308 l 174 0 l 21 0 l 494 972 l 660 972 l 1133 0 l 981 0 m 392 447 l 763 447 l 578 828 l 392 447 z "},"B":{"ha":1275,"x_min":83,"x_max":1192,"o":"m 1108 457 q 1166 397 1150 417 q 1187 360 1182 376 q 1192 317 1192 344 q 1187 224 1192 251 q 1169 181 1182 197 q 1110 119 1156 164 q 1004 36 1047 58 q 888 7 961 14 q 638 0 815 0 q 425 5 490 0 q 318 26 360 10 q 224 85 276 43 l 224 0 l 83 0 l 83 972 l 224 972 l 224 865 q 242 876 233 871 q 258 886 250 882 q 369 946 328 929 q 465 967 410 963 q 638 972 519 972 q 892 966 818 972 q 1007 938 965 960 q 1108 858 1049 917 q 1166 797 1150 818 q 1187 758 1182 776 q 1192 706 1192 740 q 1187 649 1192 668 q 1166 609 1182 629 q 1110 550 1150 589 l 1058 503 q 1108 457 1082 485 m 1007 638 q 1045 680 1038 668 q 1053 704 1053 692 q 1045 728 1053 717 q 1006 769 1038 739 q 942 814 972 801 q 850 830 911 826 q 638 833 789 833 q 502 831 544 833 q 431 819 460 828 q 360 790 403 811 q 266 742 294 758 q 231 719 238 726 q 224 704 224 713 l 224 569 l 638 569 q 764 571 729 569 q 890 578 849 572 q 955 596 932 583 q 1007 638 978 608 m 1007 207 q 1047 251 1040 240 q 1053 293 1053 263 q 1047 325 1053 315 q 1006 367 1040 335 q 953 407 976 394 q 887 425 929 419 q 760 432 844 431 l 224 431 l 224 294 q 228 265 224 276 q 249 238 232 254 q 304 194 265 222 q 370 156 342 167 q 452 143 399 146 q 638 139 506 140 l 699 139 q 869 144 815 139 q 949 162 922 149 q 1007 207 975 175 z "},"C":{"ha":1275,"x_min":83,"x_max":1190,"o":"m 83 489 q 90 673 83 624 q 124 759 97 722 q 236 878 151 796 q 333 962 300 942 q 423 987 367 982 q 638 992 479 992 q 852 987 796 992 q 942 962 908 982 q 1039 878 975 942 q 1130 778 1099 819 q 1174 694 1161 736 q 1190 592 1186 653 l 1050 592 q 1019 691 1043 647 q 936 789 994 735 q 878 836 900 825 q 813 850 857 847 q 638 853 768 853 q 463 850 507 853 q 397 836 418 847 q 339 789 375 825 q 253 698 274 726 q 227 631 232 669 q 222 488 222 593 q 227 347 222 385 q 253 279 232 308 q 338 186 274 250 q 397 136 375 149 q 464 121 419 124 q 638 118 508 118 q 811 121 767 118 q 878 136 856 124 q 938 186 900 149 q 1016 284 992 240 q 1049 376 1040 328 l 1189 376 q 1154 238 1183 293 q 1040 97 1125 182 q 941 11 975 32 q 851 -15 907 -10 q 638 -21 796 -21 q 426 -15 482 -21 q 337 11 371 -10 q 235 97 303 32 q 124 218 150 181 q 90 305 97 256 q 83 489 83 354 z "},"D":{"ha":1264,"x_min":83,"x_max":1194,"o":"m 1042 858 q 1153 740 1126 776 q 1188 658 1181 704 q 1194 489 1194 613 q 1188 321 1194 367 q 1154 239 1181 275 q 1043 118 1128 203 q 926 32 978 53 q 744 6 874 11 q 224 0 614 0 l 83 0 l 83 972 l 224 972 q 744 967 614 972 q 926 942 874 963 q 1042 858 978 922 m 940 207 q 1025 299 1004 271 q 1051 361 1046 326 q 1056 488 1056 396 q 1051 621 1056 585 q 1025 683 1046 657 q 939 769 1004 710 q 863 817 903 806 q 704 831 822 828 q 224 833 586 833 l 224 139 q 702 142 583 139 q 862 157 821 144 q 940 207 903 169 z "},"E":{"ha":1015,"x_min":83,"x_max":932,"o":"m 932 842 l 224 842 l 224 558 l 679 558 l 679 426 l 224 426 l 224 132 l 929 132 l 929 0 l 83 0 l 83 974 l 932 974 l 932 842 z "},"F":{"ha":986,"x_min":83,"x_max":931,"o":"m 931 833 l 224 833 l 224 563 l 693 563 l 693 422 l 224 422 l 224 0 l 83 0 l 83 974 l 931 974 l 931 833 z "},"G":{"ha":1274,"x_min":83,"x_max":1271,"o":"m 1271 40 l 1271 0 l 1117 0 l 1047 110 l 1047 182 q 971 97 1028 154 q 876 16 913 39 q 793 -14 839 -7 q 651 -21 747 -21 q 436 -15 494 -21 q 339 12 378 -10 q 235 97 300 33 q 124 218 150 181 q 90 305 97 256 q 83 489 83 354 q 90 673 83 624 q 124 759 97 722 q 236 878 151 796 q 333 962 300 942 q 423 987 367 982 q 638 992 479 992 q 852 987 796 992 q 942 962 908 982 q 1039 878 975 942 q 1130 778 1099 819 q 1174 694 1161 736 q 1190 592 1186 653 l 1050 592 q 1019 691 1043 647 q 936 789 994 735 q 878 836 900 825 q 813 850 857 847 q 638 853 768 853 q 463 850 507 853 q 397 836 418 847 q 339 789 375 825 q 253 698 274 726 q 227 631 232 669 q 222 488 222 593 q 227 347 222 385 q 253 279 232 308 q 338 186 274 250 q 400 137 374 150 q 474 121 426 124 q 651 118 521 118 q 749 122 719 118 q 799 139 779 126 q 854 186 819 151 q 920 263 904 236 q 946 344 936 289 l 488 344 l 488 485 l 1188 485 l 1188 344 l 1188 253 l 1188 253 l 1188 142 l 1271 40 z "},"H":{"ha":1278,"x_min":83,"x_max":1194,"o":"m 1054 972 l 1194 972 l 1194 0 l 1054 0 l 1054 435 l 224 433 l 224 0 l 83 0 l 83 972 l 224 972 l 224 575 l 1054 575 l 1054 972 z "},"I":{"ha":1014,"x_min":83,"x_max":931,"o":"m 83 833 l 83 974 l 931 974 l 931 833 l 576 833 l 576 140 l 931 140 l 931 0 l 83 0 l 83 140 l 436 140 l 436 833 l 83 833 z "},"J":{"ha":1264,"x_min":69,"x_max":1181,"o":"m 1181 488 q 1174 306 1181 354 q 1140 219 1167 257 q 1029 97 1114 182 q 930 11 964 32 q 840 -15 896 -10 q 624 -21 783 -21 q 413 -15 468 -21 q 323 11 357 -10 q 222 99 289 32 q 110 218 138 181 q 76 305 83 256 q 69 488 69 354 l 208 488 q 213 347 208 385 q 239 279 218 308 q 324 186 260 250 q 383 136 361 149 q 450 121 406 124 q 624 118 494 118 q 799 121 754 118 q 866 136 843 124 q 926 186 889 149 q 1011 279 990 250 q 1037 347 1032 308 q 1042 488 1042 385 l 1042 833 l 586 833 l 586 972 l 1181 972 l 1181 488 z "},"K":{"ha":1081,"x_min":83,"x_max":1053,"o":"m 1053 972 l 583 522 l 1053 0 l 869 0 l 481 422 l 225 178 l 225 0 l 83 0 l 83 972 l 224 972 l 225 361 l 856 972 l 1053 972 z "},"L":{"ha":889,"x_min":83,"x_max":847,"o":"m 206 0 l 83 58 l 83 972 l 224 972 l 224 156 l 256 140 l 847 140 l 847 0 l 206 0 z "},"M":{"ha":1267,"x_min":83,"x_max":1183,"o":"m 1017 972 l 1183 972 l 1183 0 l 1044 0 l 1044 760 l 707 243 l 549 243 l 222 754 l 222 0 l 83 0 l 83 972 l 250 972 l 633 375 l 1017 972 z "},"N":{"ha":1139,"x_min":83,"x_max":1056,"o":"m 915 972 l 1056 972 l 1056 0 l 886 0 l 885 4 l 871 0 l 224 810 l 224 0 l 83 0 l 83 972 l 267 972 l 267 969 l 276 972 l 915 169 l 915 972 z "},"O":{"ha":1275,"x_min":83,"x_max":1192,"o":"m 638 -21 q 426 -15 482 -21 q 337 11 371 -10 q 235 97 303 32 q 124 218 150 181 q 90 305 97 256 q 83 489 83 354 q 90 673 83 624 q 124 759 97 722 q 236 878 151 796 q 333 962 300 942 q 423 987 367 982 q 638 992 479 992 q 852 987 796 992 q 942 962 908 982 q 1039 878 975 942 q 1151 759 1124 796 q 1185 673 1178 722 q 1192 489 1192 624 q 1185 306 1192 356 q 1151 219 1178 257 q 1040 97 1125 182 q 941 11 975 32 q 851 -15 907 -10 q 638 -21 796 -21 m 638 118 q 811 121 767 118 q 878 136 856 124 q 938 186 900 149 q 1022 279 1001 250 q 1048 347 1043 308 q 1053 488 1053 385 q 1048 635 1053 596 q 1022 701 1043 674 q 936 789 1001 729 q 878 836 900 825 q 813 850 857 847 q 638 853 768 853 q 463 850 507 853 q 397 836 418 847 q 339 789 375 825 q 253 698 274 726 q 227 631 232 669 q 222 488 222 593 q 227 347 222 385 q 253 279 232 308 q 338 186 274 250 q 397 136 375 149 q 464 121 419 124 q 638 118 508 118 z "},"P":{"ha":1247,"x_min":83,"x_max":1192,"o":"m 1067 863 q 1154 769 1131 801 q 1185 701 1178 738 q 1192 586 1192 665 q 1185 469 1192 506 q 1154 399 1178 432 q 1068 304 1131 367 q 968 222 1008 244 q 862 193 928 200 q 638 186 796 186 q 421 193 485 188 q 317 218 357 199 q 224 288 276 238 l 224 -1 l 83 -1 l 83 972 l 224 971 l 224 878 q 306 942 269 922 q 398 968 342 961 q 568 976 454 975 l 638 976 q 862 970 796 976 q 967 942 928 964 q 1067 863 1007 921 m 965 393 q 1026 460 1010 438 q 1048 507 1043 482 q 1053 585 1053 532 q 1048 659 1053 635 q 1026 706 1043 683 q 964 774 1008 729 q 905 818 932 806 q 824 834 878 831 q 638 838 771 838 l 571 838 q 431 832 475 836 q 364 815 388 828 q 311 774 340 803 q 243 699 260 724 q 224 636 226 675 l 224 533 q 242 469 226 493 q 310 393 258 444 q 372 346 344 358 q 452 329 399 333 q 638 325 506 325 q 823 329 769 325 q 903 346 876 333 q 965 393 931 358 z "},"Q":{"ha":1265,"x_min":83,"x_max":1233,"o":"m 1233 0 q 1090 15 1138 3 q 1001 58 1042 26 q 924 1 958 17 q 834 -17 889 -14 q 638 -21 779 -21 q 426 -15 482 -21 q 337 11 371 -10 q 235 97 303 32 q 124 218 150 181 q 90 305 97 256 q 83 489 83 354 q 90 673 83 624 q 124 759 97 722 q 236 878 151 796 q 333 962 300 942 q 423 987 367 982 q 638 992 479 992 q 852 987 796 992 q 942 962 908 982 q 1039 878 975 942 q 1151 759 1124 796 q 1185 673 1178 722 q 1192 489 1192 624 q 1188 325 1192 372 q 1165 242 1183 278 q 1100 158 1147 207 q 1233 139 1139 140 l 1233 0 m 338 186 q 397 136 375 149 q 464 121 419 124 q 638 118 508 118 q 786 119 743 118 q 854 128 829 121 q 900 151 879 135 q 842 224 860 193 q 820 294 825 254 q 815 417 815 333 l 815 418 l 954 418 q 961 313 954 343 q 999 249 968 282 q 1037 306 1026 279 q 1050 367 1047 332 q 1053 488 1053 403 q 1048 635 1053 596 q 1022 701 1043 674 q 936 789 1001 729 q 878 836 900 825 q 813 850 857 847 q 638 853 768 853 q 463 850 507 853 q 397 836 418 847 q 339 789 375 825 q 253 698 274 726 q 227 631 232 669 q 222 488 222 593 q 227 347 222 385 q 253 279 232 308 q 338 186 274 250 z "},"R":{"ha":1317,"x_min":56,"x_max":1233,"o":"m 1110 304 q 1050 249 1076 271 l 1201 -1 l 1033 -1 l 915 194 q 679 186 851 186 q 463 193 526 188 q 358 218 399 199 q 265 288 318 238 l 265 -1 l 125 -1 l 125 815 l 56 924 l 56 971 l 196 971 l 256 868 q 342 939 306 918 q 435 967 378 960 q 610 976 492 975 l 679 976 q 903 970 838 976 q 1009 942 969 964 q 1108 863 1049 921 q 1196 769 1172 801 q 1226 701 1219 738 q 1233 586 1233 665 q 1226 469 1233 506 q 1196 399 1219 432 q 1110 304 1172 367 m 351 393 q 413 346 386 358 q 494 329 440 333 q 679 325 547 325 q 865 329 811 325 q 945 346 918 333 q 1007 393 972 358 q 1068 460 1051 438 q 1090 507 1085 482 q 1094 585 1094 532 q 1090 659 1094 635 q 1067 706 1085 683 q 1006 774 1050 729 q 947 818 974 806 q 866 834 919 831 q 679 838 813 838 l 613 838 q 473 832 517 836 q 406 815 429 828 q 353 774 382 803 q 285 699 301 724 q 265 636 268 675 l 265 533 q 284 469 268 493 q 351 393 300 444 z "},"S":{"ha":1278,"x_min":83,"x_max":1194,"o":"m 1194 635 l 1056 635 l 1056 690 q 1051 745 1056 728 q 1033 773 1047 763 q 985 797 1019 783 q 870 836 911 825 q 779 851 829 847 q 629 854 729 854 q 464 851 517 854 q 374 835 411 847 q 281 796 338 824 q 242 770 253 781 q 227 742 231 760 q 224 686 224 725 q 249 616 224 638 q 353 583 274 594 q 631 558 432 572 q 1015 522 906 540 q 1158 465 1124 504 q 1193 336 1193 426 q 1181 201 1193 244 q 1127 128 1168 158 q 986 51 1086 99 q 878 5 918 18 q 786 -12 838 -8 q 629 -17 735 -17 q 483 -12 532 -17 q 393 5 435 -8 q 278 50 351 18 q 145 118 183 90 q 95 188 107 146 q 83 319 83 229 l 83 360 l 222 360 l 222 319 q 226 255 222 275 q 241 223 229 235 q 282 196 253 211 q 390 146 350 160 q 478 127 429 132 q 629 122 528 122 q 774 127 725 122 q 865 147 822 132 q 985 197 907 161 q 1032 227 1018 214 q 1050 263 1046 240 q 1054 336 1054 285 q 1028 378 1054 364 q 919 401 1003 392 q 631 426 836 411 q 258 469 365 447 q 118 536 151 492 q 85 686 85 581 q 97 811 85 772 q 147 876 108 850 q 279 942 185 903 q 376 977 338 967 q 466 990 414 988 q 631 993 518 993 q 779 990 731 993 q 870 977 828 988 q 988 942 913 967 q 1129 884 1089 908 q 1182 819 1169 860 q 1194 690 1194 779 l 1194 635 z "},"T":{"ha":1014,"x_min":83,"x_max":931,"o":"m 436 0 l 436 833 l 83 833 l 83 974 l 931 974 l 931 833 l 576 833 l 576 0 l 436 0 z "},"U":{"ha":1278,"x_min":83,"x_max":1194,"o":"m 1194 972 l 1194 488 q 1188 306 1194 354 q 1154 219 1181 257 q 1043 97 1128 182 q 944 11 978 32 q 853 -15 910 -10 q 638 -21 797 -21 q 426 -15 482 -21 q 337 11 371 -10 q 236 99 303 32 q 124 218 151 181 q 90 305 97 256 q 83 488 83 354 l 83 972 l 222 972 l 222 488 q 227 347 222 385 q 253 279 232 308 q 338 186 274 250 q 397 136 375 149 q 464 121 419 124 q 638 118 508 118 q 813 121 768 118 q 880 136 857 124 q 940 186 903 149 q 1025 279 1004 250 q 1051 347 1046 308 q 1056 488 1056 385 l 1056 972 l 1194 972 z "},"V":{"ha":1028,"x_min":0,"x_max":1028,"o":"m 869 972 l 1028 972 l 592 0 l 433 0 l 0 972 l 158 972 l 513 176 l 869 972 z "},"W":{"ha":1543,"x_min":28,"x_max":1515,"o":"m 1364 972 l 1515 972 l 1100 0 l 951 0 l 771 508 l 572 0 l 424 0 l 28 972 l 179 972 l 496 189 l 697 713 l 850 713 l 1033 192 l 1364 972 z "},"X":{"ha":1111,"x_min":-8,"x_max":1118,"o":"m -8 0 l 443 471 l 443 500 l -8 972 l 181 972 l 556 581 l 929 972 l 1118 972 l 667 500 l 667 471 l 1118 0 l 929 0 l 556 392 l 181 0 l -8 0 z "},"Y":{"ha":1028,"x_min":28,"x_max":1000,"o":"m 28 972 l 193 972 l 511 411 l 833 972 l 1000 972 l 581 257 l 581 0 l 442 0 l 442 257 l 28 972 z "},"Z":{"ha":1139,"x_min":83,"x_max":1056,"o":"m 1056 972 l 1056 832 l 294 140 l 1056 140 l 1056 0 l 139 -1 l 83 -1 l 83 140 l 844 832 l 83 831 l 83 972 l 1056 972 z "},"a":{"ha":1324,"x_min":83,"x_max":1268,"o":"m 1268 35 l 1268 0 l 1110 0 l 1054 96 q 986 36 1017 56 q 916 8 956 17 q 810 0 876 0 l 353 0 q 270 10 296 1 q 197 50 244 18 q 122 111 144 86 q 91 169 99 136 q 83 269 83 203 q 91 368 83 335 q 122 426 99 401 q 199 489 144 451 q 270 529 244 521 q 353 538 296 538 l 871 538 q 980 507 928 538 q 1054 443 1032 476 l 1054 638 l 83 638 l 83 778 l 1194 778 l 1194 142 l 1268 35 m 1054 275 q 871 397 954 397 l 353 397 q 311 394 324 397 q 279 375 299 390 q 233 328 243 346 q 224 269 224 310 q 233 210 224 228 q 279 164 242 192 q 311 145 299 149 q 353 140 324 142 l 810 140 q 906 150 869 140 q 975 188 942 160 q 1054 274 1008 215 l 1054 275 z "},"b":{"ha":1335,"x_min":56,"x_max":1251,"o":"m 1126 683 q 1214 589 1190 622 q 1244 514 1238 556 q 1251 379 1251 472 q 1244 262 1251 299 q 1214 192 1238 225 q 1128 97 1190 160 q 1028 15 1068 38 q 922 -14 988 -7 q 697 -21 856 -21 q 479 -15 544 -21 q 373 13 414 -8 q 272 92 332 35 l 214 0 l 56 0 l 56 32 l 143 142 l 143 972 l 283 972 l 283 699 q 373 767 333 747 q 479 792 413 786 q 697 797 546 797 q 922 791 856 797 q 1027 763 988 785 q 1126 683 1067 742 m 1025 186 q 1086 253 1069 231 q 1108 300 1103 275 q 1113 378 1113 325 q 1108 472 1113 443 q 1085 526 1103 501 q 1024 594 1068 550 q 965 639 992 626 q 884 655 938 651 q 697 658 831 658 q 513 655 567 658 q 432 639 460 651 q 371 594 404 626 q 302 518 318 544 q 283 443 286 492 l 283 326 q 302 262 286 286 q 369 186 318 238 q 431 139 404 151 q 512 122 458 126 q 697 118 565 118 q 883 122 829 118 q 963 139 936 126 q 1025 186 990 151 z "},"c":{"ha":1274,"x_min":83,"x_max":1190,"o":"m 83 379 q 90 514 83 472 q 121 589 97 556 q 208 683 144 622 q 308 763 268 742 q 413 791 347 785 q 638 797 479 797 q 864 791 797 797 q 969 763 931 785 q 1067 683 1008 742 q 1146 599 1122 629 q 1179 537 1169 569 q 1190 447 1189 504 l 1051 447 q 1031 519 1047 493 q 964 594 1014 546 q 903 639 931 626 q 822 655 875 651 q 638 658 768 658 q 451 655 504 658 q 370 639 397 651 q 311 594 343 626 q 249 526 267 550 q 227 472 232 501 q 222 378 222 443 q 227 300 222 325 q 249 253 232 275 q 310 186 265 231 q 372 139 344 151 q 452 122 399 126 q 638 118 506 118 q 823 122 769 118 q 903 139 876 126 q 965 186 931 151 q 1028 256 1011 232 q 1050 308 1044 279 l 1190 308 q 1178 233 1188 263 q 1144 176 1168 204 q 1068 97 1121 149 q 965 15 1006 38 q 858 -14 924 -7 q 638 -21 793 -21 q 413 -14 479 -21 q 307 15 347 -7 q 207 97 267 38 q 121 192 144 160 q 90 262 97 225 q 83 379 83 299 z "},"d":{"ha":1335,"x_min":83,"x_max":1279,"o":"m 1279 32 l 1279 0 l 1121 0 l 1063 92 q 962 13 1003 35 q 856 -15 921 -8 q 638 -21 790 -21 q 413 -14 479 -21 q 307 15 347 -7 q 207 97 267 38 q 121 192 144 160 q 90 262 97 225 q 83 379 83 299 q 90 514 83 472 q 121 589 97 556 q 208 683 144 622 q 308 763 268 742 q 413 791 347 785 q 638 797 479 797 q 856 792 789 797 q 962 767 922 786 q 1051 699 1001 747 l 1051 972 l 1192 972 l 1192 142 l 1279 32 m 638 118 q 823 122 769 118 q 903 139 876 126 q 965 186 931 151 q 1033 262 1017 238 q 1051 326 1049 286 l 1051 443 q 1033 518 1049 492 q 964 594 1017 544 q 903 639 931 626 q 822 655 875 651 q 638 658 768 658 q 451 655 504 658 q 370 639 397 651 q 311 594 343 626 q 249 526 267 550 q 227 472 232 501 q 222 378 222 443 q 227 300 222 325 q 249 253 232 275 q 310 186 265 231 q 372 139 344 151 q 452 122 399 126 q 638 118 506 118 z "},"e":{"ha":1275,"x_min":83,"x_max":1192,"o":"m 224 331 q 241 264 225 289 q 310 186 257 239 q 372 139 344 151 q 452 122 399 126 q 638 118 506 118 l 775 118 q 868 122 838 118 q 919 136 899 125 q 965 172 940 147 q 1013 223 997 204 q 1038 258 1029 242 l 1188 258 q 1157 180 1181 213 q 1068 83 1133 147 q 977 11 1014 32 q 890 -15 940 -10 q 725 -21 839 -21 l 638 -21 q 413 -14 479 -21 q 307 15 347 -7 q 207 97 267 38 q 121 192 144 160 q 90 262 97 225 q 83 379 83 299 q 90 514 83 472 q 121 589 97 556 q 208 683 144 622 q 308 763 268 742 q 413 791 347 785 q 638 797 479 797 q 864 791 797 797 q 969 763 931 785 q 1067 683 1008 742 q 1154 588 1131 621 q 1185 513 1178 554 q 1192 379 1192 472 l 1192 331 l 224 331 m 638 658 q 451 655 504 658 q 370 639 397 651 q 311 594 343 626 q 249 525 265 549 q 226 469 232 501 l 1049 469 q 1027 527 1043 504 q 964 594 1011 550 q 903 639 931 626 q 822 655 875 651 q 638 658 768 658 z "},"f":{"ha":1199,"x_min":42,"x_max":1157,"o":"m 1032 997 q 1119 906 1094 936 q 1150 851 1143 876 q 1157 776 1157 825 l 1018 776 q 1013 813 1018 799 q 990 847 1008 826 q 929 908 972 868 q 870 953 896 940 q 799 969 844 965 q 644 972 754 972 q 568 969 593 972 q 522 952 543 965 q 471 908 501 939 q 410 841 428 865 q 388 788 393 817 q 382 701 382 760 l 382 526 l 824 526 l 824 388 l 382 388 l 382 0 l 243 0 l 243 388 l 42 388 l 42 526 l 243 526 l 243 701 q 250 831 243 790 q 281 903 257 871 q 368 997 306 936 q 459 1076 425 1053 q 531 1105 493 1099 q 644 1111 568 1111 q 840 1104 781 1111 q 936 1076 899 1097 q 1032 997 974 1054 z "},"g":{"ha":1319,"x_min":83,"x_max":1278,"o":"m 1278 778 l 1278 742 l 1194 632 l 1194 489 q 1190 402 1194 429 q 1170 353 1186 375 q 1113 293 1154 332 q 1031 221 1072 253 q 1079 185 1032 219 q 1144 133 1128 149 q 1164 101 1160 117 q 1168 49 1168 86 q 1166 5 1168 17 q 1154 -16 1164 -7 q 1114 -47 1144 -25 q 1090 -63 1101 -57 q 1067 -72 1079 -69 q 1142 -128 1122 -111 q 1165 -157 1161 -146 q 1168 -194 1168 -168 q 1165 -233 1168 -222 q 1151 -253 1163 -244 q 1107 -281 1139 -262 q 1079 -297 1100 -285 q 1034 -318 1058 -310 q 983 -326 1010 -326 l 363 -326 q 296 -320 324 -326 q 190 -289 268 -314 q 120 -258 140 -272 q 94 -219 100 -244 q 88 -133 88 -193 q 94 -47 88 -72 q 119 -6 100 -21 q 186 25 138 8 q 288 58 261 51 q 358 64 315 64 l 1029 64 q 889 151 935 129 q 811 174 843 172 l 797 174 l 797 174 l 786 174 q 426 180 528 174 q 275 208 324 186 q 165 292 226 231 q 108 356 124 333 q 88 404 92 378 q 83 490 83 431 q 88 575 83 549 q 108 623 92 601 q 165 685 124 644 q 266 763 225 742 q 379 790 307 783 q 622 797 451 797 q 873 792 796 797 q 994 770 950 788 q 1082 711 1038 753 l 1124 778 l 1278 778 m 1010 381 q 1049 428 1042 413 q 1056 489 1056 444 l 1056 504 q 1047 551 1054 536 q 1008 594 1039 565 q 944 639 975 626 q 849 655 914 651 q 622 658 783 658 q 417 655 476 658 q 330 639 358 651 q 269 594 301 626 q 229 546 236 561 q 222 489 222 531 q 229 428 222 444 q 268 381 236 413 q 332 333 303 346 q 419 317 361 321 q 622 313 478 313 q 849 317 785 313 q 944 333 914 321 q 1010 381 975 346 m 1011 -187 q 958 -147 1001 -181 q 877 -94 914 -114 q 817 -75 840 -75 l 368 -75 q 330 -78 344 -75 q 275 -99 315 -82 q 240 -115 246 -110 q 233 -133 233 -121 q 240 -148 233 -143 q 275 -164 247 -153 q 333 -184 318 -181 q 368 -187 347 -187 l 1011 -187 z "},"h":{"ha":1275,"x_min":83,"x_max":1192,"o":"m 1067 683 q 1154 589 1131 622 q 1185 514 1178 556 q 1192 379 1192 472 l 1192 0 l 1053 0 l 1053 378 q 1048 472 1053 443 q 1026 526 1043 501 q 964 594 1008 550 q 905 639 932 626 q 824 655 878 651 q 638 658 771 658 q 453 655 507 658 q 372 639 400 651 q 311 594 344 626 q 244 520 261 546 q 224 450 228 494 l 225 0 l 83 0 l 83 1111 l 224 1111 l 224 699 q 313 767 274 747 q 419 792 353 786 q 638 797 486 797 q 862 791 796 797 q 967 763 928 785 q 1067 683 1007 742 z "},"i":{"ha":1139,"x_min":83,"x_max":1056,"o":"m 1056 640 l 640 640 l 640 140 l 1056 140 l 1056 0 l 83 0 l 83 140 l 500 140 l 500 640 l 83 640 l 83 781 l 1056 781 l 1056 640 z "},"j":{"ha":1093,"x_min":83,"x_max":1010,"o":"m 1010 378 q 1003 259 1010 296 q 972 190 996 222 q 886 97 949 158 q 788 16 825 39 q 708 -14 751 -7 q 568 -21 664 -21 q 393 -14 446 -21 q 303 15 340 -7 q 207 97 267 38 q 121 192 144 160 q 90 262 97 225 q 83 378 83 299 l 222 378 q 227 300 222 325 q 249 253 232 275 q 310 186 265 231 q 368 140 343 153 q 433 122 393 126 q 568 118 474 118 q 672 122 640 118 q 727 140 704 126 q 783 186 750 153 q 844 253 828 231 q 866 300 861 275 q 871 378 871 325 l 871 639 l 568 639 l 568 778 l 1010 778 l 1010 378 z "},"k":{"ha":1149,"x_min":83,"x_max":1107,"o":"m 1107 778 l 649 463 l 1107 0 l 910 0 l 522 375 l 225 169 l 225 0 l 83 0 l 83 1111 l 224 1111 l 225 336 l 876 778 l 1107 778 z "},"l":{"ha":514,"x_min":83,"x_max":458,"o":"m 206 0 l 83 58 l 83 1111 l 224 1111 l 224 156 l 256 140 l 458 140 l 458 0 l 206 0 z "},"m":{"ha":1856,"x_min":56,"x_max":1772,"o":"m 1772 0 l 1633 0 l 1631 214 l 1633 381 q 1628 473 1633 444 q 1606 526 1624 501 q 1544 594 1589 550 q 1490 639 1513 626 q 1430 655 1468 651 q 1301 658 1392 658 q 1185 655 1219 658 q 1128 639 1150 651 q 1072 594 1106 626 l 1033 556 q 1049 491 1046 528 q 1053 381 1053 454 l 1053 0 l 914 0 l 914 378 q 909 472 914 443 q 887 526 904 501 q 825 594 869 550 q 772 639 793 626 q 715 655 750 651 q 596 658 679 658 q 479 655 514 658 q 422 639 444 651 q 367 594 400 626 q 309 536 325 554 q 288 501 293 518 q 279 450 282 483 l 281 0 l 139 0 l 139 632 l 56 742 l 56 778 l 210 778 l 267 686 q 356 763 322 742 q 438 791 390 785 q 596 797 486 797 q 752 791 704 797 q 835 763 800 785 q 928 683 869 740 q 943 668 943 668 q 1040 756 1003 729 q 1121 790 1078 782 q 1249 797 1164 797 l 1301 797 q 1467 791 1417 797 q 1553 763 1518 785 q 1647 683 1588 740 q 1735 589 1711 622 q 1765 515 1758 556 q 1772 381 1772 474 l 1772 0 z "},"n":{"ha":1317,"x_min":42,"x_max":1233,"o":"m 1108 683 q 1196 589 1172 622 q 1226 514 1219 556 q 1233 379 1233 472 l 1233 0 l 1094 0 l 1094 378 q 1090 472 1094 443 q 1067 526 1085 501 q 1006 594 1050 550 q 947 639 974 626 q 866 655 919 651 q 679 658 813 658 q 495 655 549 658 q 414 639 442 651 q 353 594 386 626 q 286 520 303 546 q 265 450 269 494 l 267 0 l 125 0 l 125 632 l 42 742 l 42 778 l 196 778 l 253 686 q 348 763 308 742 q 454 791 388 785 q 679 797 521 797 q 903 791 838 797 q 1009 763 969 785 q 1108 683 1049 742 z "},"o":{"ha":1275,"x_min":83,"x_max":1192,"o":"m 638 -21 q 413 -14 479 -21 q 307 15 347 -7 q 207 97 267 38 q 121 192 144 160 q 90 262 97 225 q 83 379 83 299 q 90 514 83 472 q 121 589 97 556 q 208 683 144 622 q 308 763 268 742 q 413 791 347 785 q 638 797 479 797 q 864 791 797 797 q 969 763 931 785 q 1067 683 1008 742 q 1154 588 1131 621 q 1185 513 1178 554 q 1192 379 1192 472 q 1185 260 1192 297 q 1154 190 1178 222 q 1068 97 1131 158 q 965 15 1006 38 q 858 -14 924 -7 q 638 -21 793 -21 m 638 118 q 823 122 769 118 q 903 139 876 126 q 965 186 931 151 q 1026 253 1010 231 q 1048 300 1043 275 q 1053 378 1053 325 q 1048 475 1053 444 q 1026 528 1043 506 q 964 594 1008 551 q 903 639 931 626 q 822 655 875 651 q 638 658 768 658 q 451 655 504 658 q 370 639 397 651 q 311 594 343 626 q 249 526 267 550 q 227 472 232 501 q 222 378 222 443 q 227 300 222 325 q 249 253 232 275 q 310 186 265 231 q 372 139 344 151 q 452 122 399 126 q 638 118 506 118 z "},"p":{"ha":1275,"x_min":83,"x_max":1192,"o":"m 1067 683 q 1154 588 1131 621 q 1185 513 1178 554 q 1192 379 1192 472 q 1185 260 1192 297 q 1154 190 1178 222 q 1068 97 1131 158 q 965 15 1006 38 q 858 -14 924 -7 q 638 -21 793 -21 q 420 -15 485 -21 q 315 10 356 -10 q 224 81 275 31 l 224 -326 l 83 -326 l 83 778 l 222 778 l 224 697 q 315 766 275 746 q 420 792 354 786 q 638 797 486 797 q 864 791 797 797 q 969 763 931 785 q 1067 683 1008 742 m 965 186 q 1026 253 1010 231 q 1048 300 1043 275 q 1053 378 1053 325 q 1048 475 1053 444 q 1026 528 1043 506 q 964 594 1008 551 q 903 639 931 626 q 822 655 875 651 q 638 658 768 658 q 451 655 504 658 q 370 639 397 651 q 311 594 343 626 q 243 516 260 543 q 224 442 226 489 l 224 326 q 242 262 226 286 q 310 186 258 238 q 372 139 344 151 q 452 122 399 126 q 638 118 506 118 q 823 122 769 118 q 903 139 876 126 q 965 186 931 151 z "},"q":{"ha":1343,"x_min":83,"x_max":1274,"o":"m 1190 632 l 1190 461 q 1192 379 1192 439 l 1192 -326 l 1051 -326 l 1051 81 q 960 10 1000 31 q 855 -15 919 -10 q 638 -21 790 -21 q 417 -14 482 -21 q 310 15 351 -7 q 207 97 269 38 q 121 190 144 158 q 90 260 97 222 q 83 379 83 297 q 90 513 83 472 q 121 588 97 554 q 208 683 144 621 q 306 763 267 742 q 411 791 344 785 q 638 797 478 797 q 859 791 793 797 q 965 764 925 785 q 1063 688 1006 743 l 1119 778 l 1274 778 l 1274 742 l 1190 632 m 965 186 q 1026 253 1010 231 q 1047 299 1042 275 q 1051 378 1051 324 q 1047 472 1051 443 q 1025 526 1042 501 q 964 594 1008 550 q 905 639 932 626 q 824 655 878 651 q 638 658 771 658 q 453 655 507 658 q 372 639 400 651 q 311 594 344 626 q 249 528 267 551 q 227 475 232 506 q 222 378 222 444 q 227 300 222 325 q 249 253 232 275 q 310 186 265 231 q 372 139 344 151 q 452 122 399 126 q 638 118 506 118 q 823 122 769 118 q 903 139 876 126 q 965 186 931 151 z "},"r":{"ha":1094,"x_min":83,"x_max":1011,"o":"m 886 683 q 974 589 950 622 q 1004 514 997 556 q 1011 379 1011 472 l 872 378 q 867 472 872 443 q 845 526 863 501 q 783 594 828 550 q 729 639 751 626 q 669 655 707 651 q 540 658 631 658 q 424 655 458 658 q 367 639 389 651 q 311 594 344 626 q 253 535 269 554 q 232 497 238 515 q 224 443 226 479 l 224 326 l 224 308 l 224 0 l 83 0 l 83 778 l 222 778 l 222 697 q 307 767 274 747 q 388 792 340 786 q 540 797 435 797 q 706 791 656 797 q 792 763 757 785 q 886 683 826 740 z "},"s":{"ha":1278,"x_min":83,"x_max":1194,"o":"m 1194 510 l 1056 510 l 1056 554 q 1052 588 1056 579 q 1036 603 1049 597 q 985 621 1024 608 q 883 650 915 643 q 803 658 850 657 q 629 660 757 660 q 443 658 492 660 q 365 649 394 656 q 282 619 336 642 q 240 599 250 606 q 228 584 231 593 q 225 551 225 575 q 243 503 225 515 q 333 483 261 490 q 631 464 406 476 q 1043 433 943 447 q 1168 384 1143 419 q 1193 240 1193 349 q 1184 145 1193 171 q 1138 100 1175 119 q 988 38 1101 81 q 877 -3 911 7 q 797 -15 843 -12 q 629 -17 751 -17 q 474 -15 517 -17 q 397 -3 432 -12 q 278 38 361 7 q 135 93 169 75 q 92 141 100 111 q 83 254 83 171 l 83 286 l 224 286 l 224 254 q 226 215 224 225 q 240 199 229 206 q 283 176 250 192 q 386 136 354 146 q 463 124 418 126 q 629 122 507 122 q 792 124 747 122 q 871 136 836 126 q 985 176 906 146 q 1036 199 1024 192 q 1051 213 1049 206 q 1054 240 1054 221 q 1035 285 1054 274 q 941 304 1017 297 q 631 326 865 311 q 231 360 328 346 q 110 410 135 375 q 86 551 86 446 q 94 659 86 631 q 137 705 103 688 q 278 758 171 722 q 376 788 344 781 q 454 797 407 794 q 631 799 501 799 q 791 797 747 799 q 870 788 835 794 q 988 758 906 781 q 1140 712 1103 728 q 1185 667 1176 696 q 1194 554 1194 638 l 1194 510 z "},"t":{"ha":1240,"x_min":42,"x_max":1157,"o":"m 1157 404 q 1150 270 1157 311 q 1119 196 1143 229 q 1032 100 1096 163 q 938 22 974 43 q 851 -7 903 0 q 686 -14 800 -14 q 572 -8 610 -14 q 501 22 535 -1 q 410 100 467 44 q 323 194 347 161 q 292 267 299 226 q 285 396 285 307 l 285 639 l 42 639 l 42 778 l 285 778 l 285 1097 l 424 1097 l 424 778 l 711 778 l 711 639 l 424 639 l 424 396 q 429 309 424 338 q 452 256 435 281 q 513 189 469 232 q 564 145 543 158 q 610 128 585 132 q 686 125 635 125 q 811 128 774 125 q 872 144 849 132 q 929 189 896 157 q 991 255 974 232 q 1013 308 1008 278 q 1018 404 1018 338 l 1157 404 z "},"u":{"ha":1331,"x_min":83,"x_max":1275,"o":"m 1275 36 l 1275 0 l 1121 0 l 1056 103 q 963 32 1003 51 q 858 6 924 13 q 638 0 792 0 q 413 6 479 0 q 308 34 347 13 q 208 114 268 56 q 121 208 144 175 q 90 283 97 242 q 83 418 83 325 l 83 778 l 222 778 l 222 419 q 227 325 222 354 q 249 272 232 296 q 311 203 267 247 q 370 158 343 171 q 451 142 397 146 q 638 139 504 139 q 822 142 768 139 q 903 158 875 146 q 964 203 931 171 q 1031 277 1014 251 q 1051 347 1047 303 l 1050 778 l 1192 778 l 1192 146 l 1275 36 z "},"v":{"ha":1028,"x_min":28,"x_max":1000,"o":"m 833 778 l 1000 778 l 608 0 l 419 0 l 28 778 l 194 778 l 514 143 l 833 778 z "},"w":{"ha":1446,"x_min":35,"x_max":1411,"o":"m 1251 778 l 1411 778 l 1089 0 l 913 0 l 724 458 l 533 0 l 357 0 l 35 778 l 194 778 l 446 172 l 647 643 l 800 643 l 1000 172 l 1251 778 z "},"x":{"ha":1164,"x_min":28,"x_max":1136,"o":"m 28 778 l 235 778 l 561 479 l 604 479 l 929 778 l 1136 778 l 703 386 l 1129 0 l 922 0 l 604 292 l 561 292 l 242 0 l 35 0 l 461 386 l 28 778 z "},"y":{"ha":1275,"x_min":83,"x_max":1192,"o":"m 1192 778 l 1192 472 l 1192 379 l 1192 74 q 1185 -46 1192 -8 q 1154 -115 1178 -83 q 1068 -208 1131 -147 q 965 -290 1006 -268 q 858 -319 924 -312 q 638 -326 793 -326 q 413 -319 479 -326 q 307 -290 347 -312 q 207 -208 267 -268 q 117 -108 140 -142 q 88 -26 93 -74 l 233 -26 q 258 -64 242 -44 q 310 -119 274 -83 q 372 -167 344 -154 q 452 -183 399 -179 q 638 -187 506 -187 q 823 -183 769 -187 q 903 -167 876 -179 q 965 -119 931 -154 q 1026 -53 1010 -75 q 1048 -6 1043 -31 q 1053 72 1053 19 l 1053 83 q 957 12 997 32 q 851 -15 917 -8 q 638 -21 786 -21 q 413 -14 479 -21 q 307 15 347 -7 q 207 97 267 38 q 121 192 144 160 q 90 262 97 225 q 83 379 83 299 l 83 778 l 224 778 q 222 378 222 763 q 227 300 222 325 q 249 253 232 275 q 310 186 265 231 q 372 139 344 151 q 452 122 399 126 q 638 118 506 118 q 823 122 769 118 q 903 139 876 126 q 965 186 931 151 q 1022 247 1006 226 q 1044 288 1038 267 q 1053 346 1051 310 q 1052 442 1053 415 q 1051 472 1051 468 l 1053 472 q 1051 778 1053 767 l 1192 778 z "},"z":{"ha":1139,"x_min":83,"x_max":1056,"o":"m 1056 778 l 1056 639 l 328 139 l 1056 139 l 1056 0 l 83 0 l 83 139 l 811 639 l 83 639 l 83 778 l 1056 778 z "},"А":{"ha":1154,"x_min":21,"x_max":1133,"o":"m 981 0 l 831 308 l 324 308 l 174 0 l 21 0 l 494 972 l 660 972 l 1133 0 l 981 0 m 392 447 l 763 447 l 578 828 l 392 447 z "},"Б":{"ha":1275,"x_min":83,"x_max":1192,"o":"m 1040 601 q 1151 488 1125 519 q 1185 432 1178 457 q 1192 350 1192 407 q 1185 269 1192 293 q 1151 213 1178 244 q 1040 97 1125 182 q 941 11 975 32 q 851 -15 907 -10 q 638 -21 796 -21 q 426 -15 482 -21 q 337 11 371 -10 q 235 97 303 32 l 222 110 l 222 0 l 83 0 l 83 972 l 960 972 l 960 833 l 222 833 l 222 589 l 235 601 q 333 684 300 664 q 423 709 367 704 q 638 714 479 714 q 852 709 796 714 q 942 684 908 704 q 1040 601 975 664 m 938 186 q 1022 273 1001 250 q 1048 309 1043 296 q 1053 349 1053 322 q 1048 394 1053 379 q 1022 431 1043 408 q 938 513 1001 453 q 879 558 901 547 q 813 572 857 569 q 638 575 768 575 q 463 572 507 575 q 396 558 418 569 q 338 513 374 547 q 253 426 274 449 q 227 390 232 404 q 222 349 222 376 q 227 309 222 322 q 253 273 232 296 q 338 186 274 250 q 397 136 375 149 q 464 121 419 124 q 638 118 508 118 q 811 121 767 118 q 878 136 856 124 q 938 186 900 149 z "},"В":{"ha":1275,"x_min":83,"x_max":1192,"o":"m 1108 457 q 1166 397 1150 417 q 1187 360 1182 376 q 1192 317 1192 344 q 1187 224 1192 251 q 1169 181 1182 197 q 1110 119 1156 164 q 1004 36 1047 58 q 888 7 961 14 q 638 0 815 0 q 425 5 490 0 q 318 26 360 10 q 224 85 276 43 l 224 0 l 83 0 l 83 972 l 224 972 l 224 865 q 242 876 233 871 q 258 886 250 882 q 369 946 328 929 q 465 967 410 963 q 638 972 519 972 q 892 966 818 972 q 1007 938 965 960 q 1108 858 1049 917 q 1166 797 1150 818 q 1187 758 1182 776 q 1192 706 1192 740 q 1187 649 1192 668 q 1166 609 1182 629 q 1110 550 1150 589 l 1058 503 q 1108 457 1082 485 m 1007 638 q 1045 680 1038 668 q 1053 704 1053 692 q 1045 728 1053 717 q 1006 769 1038 739 q 942 814 972 801 q 850 830 911 826 q 638 833 789 833 q 502 831 544 833 q 431 819 460 828 q 360 790 403 811 q 266 742 294 758 q 231 719 238 726 q 224 704 224 713 l 224 569 l 638 569 q 764 571 729 569 q 890 578 849 572 q 955 596 932 583 q 1007 638 978 608 m 1007 207 q 1047 251 1040 240 q 1053 293 1053 263 q 1047 325 1053 315 q 1006 367 1040 335 q 953 407 976 394 q 887 425 929 419 q 760 432 844 431 l 224 431 l 224 294 q 228 265 224 276 q 249 238 232 254 q 304 194 265 222 q 370 156 342 167 q 452 143 399 146 q 638 139 506 140 l 699 139 q 869 144 815 139 q 949 162 922 149 q 1007 207 975 175 z "},"Г":{"ha":958,"x_min":83,"x_max":917,"o":"m 917 972 l 917 832 l 224 831 l 224 0 l 83 0 l 83 972 l 917 972 z "},"Д":{"ha":1294,"x_min":21,"x_max":1274,"o":"m 1274 139 l 1274 -139 l 1135 -139 l 1135 0 l 160 0 l 160 -139 l 21 -139 l 21 139 l 88 139 q 145 151 125 140 q 183 190 165 163 q 239 290 201 217 q 297 411 283 375 q 315 488 311 447 q 319 638 318 529 l 319 676 l 317 833 l 317 972 l 1151 972 l 1151 139 l 1274 139 m 1013 139 l 1013 833 l 460 833 l 458 676 l 458 638 l 458 574 q 451 434 458 481 q 423 342 444 388 q 342 192 401 296 q 311 139 315 144 l 1013 139 z "},"Е":{"ha":1015,"x_min":83,"x_max":932,"o":"m 932 842 l 224 842 l 224 558 l 679 558 l 679 426 l 224 426 l 224 132 l 929 132 l 929 0 l 83 0 l 83 974 l 932 974 l 932 842 z "},"Ё":{"ha":1015,"x_min":83,"x_max":932,"o":"m 263 1108 q 242 1138 244 1129 q 239 1176 239 1146 q 243 1206 239 1196 q 263 1228 247 1215 q 294 1247 282 1243 q 351 1250 307 1250 q 408 1247 394 1250 q 438 1228 421 1243 q 459 1203 456 1213 q 463 1167 463 1193 q 459 1135 463 1143 q 438 1108 456 1126 q 406 1088 421 1092 q 335 1085 392 1085 q 288 1088 300 1085 q 263 1108 276 1092 m 586 1108 q 565 1138 568 1129 q 563 1176 563 1146 q 567 1206 563 1196 q 586 1228 571 1215 q 618 1247 606 1243 q 675 1250 631 1250 q 731 1247 718 1250 q 761 1228 744 1243 q 783 1203 779 1213 q 786 1167 786 1193 q 783 1135 786 1143 q 761 1108 779 1126 q 730 1088 744 1092 q 658 1085 715 1085 q 612 1088 624 1085 q 586 1108 600 1092 m 932 833 l 224 833 l 224 563 l 679 563 l 679 422 l 224 422 l 224 140 l 929 140 l 929 0 l 83 0 l 83 974 l 932 974 l 932 833 z "},"Ж":{"ha":1603,"x_min":31,"x_max":1572,"o":"m 1572 972 l 1138 483 l 1572 0 l 1382 0 l 1039 371 l 872 183 l 872 0 l 731 0 l 731 183 l 564 371 l 221 0 l 31 0 l 465 483 l 31 972 l 214 972 l 731 389 l 731 972 l 871 972 l 872 388 l 1389 972 l 1572 972 z "},"З":{"ha":1286,"x_min":83,"x_max":1204,"o":"m 224 371 q 226 266 224 293 q 235 225 228 239 q 268 186 243 211 q 331 136 306 149 q 410 121 356 124 q 625 118 464 118 q 858 121 800 118 q 943 136 917 124 q 1007 186 969 149 q 1040 222 1032 211 q 1051 247 1049 233 q 1053 293 1053 260 q 1051 317 1053 310 q 1038 336 1049 324 q 1006 367 1026 349 q 942 415 967 403 q 864 429 917 426 q 654 432 811 432 l 446 432 l 446 571 l 657 571 l 808 571 q 901 574 874 571 q 942 584 928 576 q 990 615 956 592 q 1042 656 1032 644 q 1051 693 1051 668 q 1048 724 1051 714 q 1028 747 1044 733 q 968 792 1011 761 q 903 835 922 824 q 868 849 883 846 q 824 853 853 853 l 625 854 l 550 854 q 420 850 458 854 q 363 834 382 846 q 311 790 343 822 q 247 722 263 742 q 228 678 232 701 q 224 593 224 654 l 83 593 q 89 719 83 685 q 117 782 94 753 q 208 879 139 811 q 308 963 274 943 q 400 988 342 983 q 625 993 458 993 l 811 993 q 922 988 888 993 q 989 960 956 982 q 1093 879 1022 939 q 1172 806 1151 829 q 1199 762 1193 783 q 1204 693 1204 740 q 1200 635 1204 653 q 1183 605 1196 618 q 1129 558 1169 592 q 1082 521 1096 531 q 1058 503 1068 511 q 1192 317 1192 410 q 1188 211 1192 239 q 1170 163 1185 183 q 1110 99 1156 143 q 1005 11 1043 32 q 897 -15 967 -10 q 625 -21 828 -21 q 369 -15 435 -21 q 267 11 303 -10 q 165 97 231 32 q 106 165 121 142 q 88 226 92 188 q 83 371 85 264 l 224 371 z "},"И":{"ha":1139,"x_min":83,"x_max":1056,"o":"m 83 0 l 83 972 l 224 972 l 224 139 l 849 972 l 1056 972 l 1056 0 l 915 0 l 915 833 l 282 0 l 83 0 z "},"Й":{"ha":1139,"x_min":83,"x_max":1056,"o":"m 357 1081 q 319 1116 336 1099 q 272 1167 303 1133 l 371 1265 q 389 1242 376 1258 q 418 1209 401 1226 q 460 1169 435 1192 q 488 1151 475 1156 q 531 1144 500 1146 q 613 1143 563 1143 q 668 1147 653 1143 q 699 1169 683 1151 q 760 1236 757 1232 q 789 1271 768 1247 l 888 1172 l 801 1081 q 742 1028 765 1043 q 686 1009 719 1014 q 579 1004 653 1004 q 483 1009 514 1004 q 426 1028 451 1014 q 357 1081 401 1043 m 888 1172 m 835 972 l 1056 972 l 1056 0 l 915 0 l 915 833 l 296 0 l 83 0 l 83 972 l 224 972 l 224 139 l 835 972 z "},"К":{"ha":1081,"x_min":83,"x_max":1053,"o":"m 1053 972 l 583 522 l 1053 0 l 863 0 l 476 419 l 225 178 l 225 0 l 83 0 l 83 972 l 224 972 l 225 361 l 856 972 l 1053 972 z "},"Л":{"ha":1222,"x_min":28,"x_max":1139,"o":"m 1139 972 l 1139 0 l 1000 0 l 1000 833 l 447 833 l 446 676 l 446 638 l 446 574 q 439 434 446 481 q 410 342 432 388 q 329 192 389 296 q 242 52 269 86 q 174 10 214 18 q 28 0 135 1 l 28 139 q 119 144 94 138 q 163 178 143 151 q 226 290 182 206 q 285 411 271 375 q 302 488 299 447 q 307 638 306 529 l 307 676 l 304 833 l 304 972 l 1139 972 z "},"М":{"ha":1267,"x_min":83,"x_max":1183,"o":"m 1017 972 l 1183 972 l 1183 0 l 1044 0 l 1044 760 l 707 243 l 549 243 l 222 754 l 222 0 l 83 0 l 83 972 l 250 972 l 633 375 l 1017 972 z "},"Н":{"ha":1278,"x_min":83,"x_max":1194,"o":"m 1054 972 l 1194 972 l 1194 0 l 1054 0 l 1054 435 l 224 433 l 224 0 l 83 0 l 83 972 l 224 972 l 224 575 l 1054 575 l 1054 972 z "},"О":{"ha":1275,"x_min":83,"x_max":1192,"o":"m 638 -21 q 426 -15 482 -21 q 337 11 371 -10 q 235 97 303 32 q 124 218 150 181 q 90 305 97 256 q 83 489 83 354 q 90 673 83 624 q 124 759 97 722 q 236 878 151 796 q 333 962 300 942 q 423 987 367 982 q 638 992 479 992 q 852 987 796 992 q 942 962 908 982 q 1039 878 975 942 q 1151 759 1124 796 q 1185 673 1178 722 q 1192 489 1192 624 q 1185 306 1192 356 q 1151 219 1178 257 q 1040 97 1125 182 q 941 11 975 32 q 851 -15 907 -10 q 638 -21 796 -21 m 638 118 q 811 121 767 118 q 878 136 856 124 q 938 186 900 149 q 1022 279 1001 250 q 1048 347 1043 308 q 1053 488 1053 385 q 1048 635 1053 596 q 1022 701 1043 674 q 936 789 1001 729 q 878 836 900 825 q 813 850 857 847 q 638 853 768 853 q 463 850 507 853 q 397 836 418 847 q 339 789 375 825 q 253 698 274 726 q 227 631 232 669 q 222 488 222 593 q 227 347 222 385 q 253 279 232 308 q 338 186 274 250 q 397 136 375 149 q 464 121 419 124 q 638 118 508 118 z "},"П":{"ha":1278,"x_min":83,"x_max":1194,"o":"m 1194 972 l 1194 0 l 1054 0 l 1054 832 l 224 831 l 224 0 l 83 0 l 83 972 l 1194 972 z "},"Р":{"ha":1247,"x_min":83,"x_max":1192,"o":"m 1067 863 q 1154 769 1131 801 q 1185 701 1178 738 q 1192 586 1192 665 q 1185 469 1192 506 q 1154 399 1178 432 q 1068 304 1131 367 q 968 222 1008 244 q 862 193 928 200 q 638 186 796 186 q 421 193 485 188 q 317 218 357 199 q 224 288 276 238 l 224 -1 l 83 -1 l 83 972 l 224 971 l 224 878 q 306 942 269 922 q 398 968 342 961 q 568 976 454 975 l 638 976 q 862 970 796 976 q 967 942 928 964 q 1067 863 1007 921 m 965 393 q 1026 460 1010 438 q 1048 507 1043 482 q 1053 585 1053 532 q 1048 659 1053 635 q 1026 706 1043 683 q 964 774 1008 729 q 905 818 932 806 q 824 834 878 831 q 638 838 771 838 l 571 838 q 431 832 475 836 q 364 815 388 828 q 311 774 340 803 q 243 699 260 724 q 224 636 226 675 l 224 533 q 242 469 226 493 q 310 393 258 444 q 372 346 344 358 q 452 329 399 333 q 638 325 506 325 q 823 329 769 325 q 903 346 876 333 q 965 393 931 358 z "},"С":{"ha":1275,"x_min":83,"x_max":1190,"o":"m 83 489 q 90 673 83 624 q 124 759 97 722 q 236 878 151 796 q 333 962 300 942 q 423 987 367 982 q 638 992 479 992 q 852 987 796 992 q 942 962 908 982 q 1039 878 975 942 q 1130 778 1099 819 q 1174 694 1161 736 q 1190 592 1186 653 l 1050 592 q 1019 691 1043 647 q 936 789 994 735 q 878 836 900 825 q 813 850 857 847 q 638 853 768 853 q 463 850 507 853 q 397 836 418 847 q 339 789 375 825 q 253 698 274 726 q 227 631 232 669 q 222 488 222 593 q 227 347 222 385 q 253 279 232 308 q 338 186 274 250 q 397 136 375 149 q 464 121 419 124 q 638 118 508 118 q 811 121 767 118 q 878 136 856 124 q 938 186 900 149 q 1016 284 992 240 q 1049 376 1040 328 l 1189 376 q 1154 238 1183 293 q 1040 97 1125 182 q 941 11 975 32 q 851 -15 907 -10 q 638 -21 796 -21 q 426 -15 482 -21 q 337 11 371 -10 q 235 97 303 32 q 124 218 150 181 q 90 305 97 256 q 83 489 83 354 z "},"Т":{"ha":1014,"x_min":83,"x_max":931,"o":"m 436 0 l 436 833 l 83 833 l 83 974 l 931 974 l 931 833 l 576 833 l 576 0 l 436 0 z "},"У":{"ha":1278,"x_min":83,"x_max":1194,"o":"m 1193 510 q 1194 379 1193 386 q 1185 260 1193 297 q 1155 190 1178 222 q 1071 97 1132 158 q 965 15 1007 38 q 858 -14 924 -7 q 638 -21 793 -21 q 413 -14 479 -21 q 307 15 347 -7 q 207 97 267 38 q 117 199 140 165 q 88 279 93 233 l 233 279 q 258 242 242 261 q 310 186 274 222 q 372 139 344 151 q 452 122 399 126 q 638 118 506 118 q 823 122 769 118 q 904 139 876 126 q 968 186 932 151 q 1027 253 1011 231 q 1049 300 1043 275 q 1056 378 1054 325 q 1054 469 1054 383 q 958 399 999 419 q 851 373 917 379 q 638 367 786 367 q 413 374 479 367 q 307 403 347 381 q 207 485 267 425 q 121 580 144 547 q 90 649 97 613 q 83 767 83 686 l 83 972 l 224 972 q 222 765 222 957 q 227 688 222 713 q 249 640 232 663 q 310 574 265 618 q 372 526 344 539 q 452 510 399 514 q 638 506 506 506 q 823 510 769 506 q 904 526 876 514 q 968 574 932 539 q 1035 651 1019 626 q 1053 719 1050 676 l 1054 851 l 1054 972 l 1193 972 l 1193 767 l 1193 758 l 1193 510 z "},"Ф":{"ha":1967,"x_min":83,"x_max":1883,"o":"m 1732 879 q 1843 760 1817 797 q 1876 673 1869 722 q 1883 489 1883 624 q 1876 306 1883 356 q 1843 219 1869 257 q 1732 97 1817 182 q 1634 10 1665 31 q 1559 -16 1603 -11 q 1385 -21 1515 -21 q 1235 -15 1276 -21 q 1162 12 1193 -10 q 1065 97 1131 33 l 1053 110 l 1053 0 l 914 0 l 914 110 l 901 97 q 806 11 836 32 q 731 -15 775 -10 q 568 -21 688 -21 q 408 -15 451 -21 q 334 11 365 -10 q 235 97 303 32 q 124 218 150 181 q 90 305 97 256 q 83 489 83 354 q 90 673 83 624 q 124 759 97 722 q 236 878 151 796 q 330 962 300 942 q 403 987 360 982 q 568 992 447 992 q 731 987 688 992 q 806 962 775 982 q 901 879 838 942 l 914 867 l 914 972 l 1053 972 l 1053 864 l 1067 878 q 1163 962 1132 942 q 1238 987 1193 982 q 1414 992 1282 992 q 1566 986 1524 992 q 1640 960 1608 981 q 1732 879 1671 940 m 799 186 q 883 278 863 250 q 909 345 904 307 q 914 485 914 383 l 914 486 l 914 488 l 914 489 l 914 490 q 909 636 914 597 q 883 703 904 675 q 799 790 863 731 q 744 836 763 825 q 692 850 725 847 q 568 853 660 853 q 444 850 476 853 q 393 836 411 847 q 339 789 375 825 q 253 698 274 726 q 227 631 232 669 q 222 488 222 593 q 227 347 222 385 q 253 279 232 308 q 338 186 274 250 q 394 136 375 149 q 446 121 414 124 q 568 118 478 118 q 690 121 658 118 q 742 136 722 124 q 799 186 761 149 m 1629 186 q 1714 279 1693 250 q 1740 347 1735 308 q 1744 488 1744 385 q 1739 634 1744 594 q 1713 701 1733 674 q 1629 790 1693 728 q 1574 836 1593 825 q 1523 850 1556 847 q 1399 853 1490 853 q 1276 850 1308 853 q 1225 835 1243 847 q 1169 789 1207 824 q 1083 698 1104 726 q 1058 631 1063 669 q 1053 490 1053 593 l 1053 489 l 1053 488 l 1053 486 l 1053 485 q 1058 345 1053 383 q 1083 278 1063 307 q 1168 186 1104 250 q 1225 136 1206 149 q 1276 121 1244 124 q 1399 118 1308 118 q 1521 121 1489 118 q 1572 136 1553 124 q 1629 186 1592 149 z "},"Х":{"ha":1111,"x_min":-8,"x_max":1118,"o":"m -8 0 l 443 471 l 443 500 l -8 972 l 181 972 l 556 581 l 929 972 l 1118 972 l 667 500 l 667 471 l 1118 0 l 929 0 l 556 392 l 181 0 l -8 0 z "},"Ч":{"ha":1247,"x_min":56,"x_max":1167,"o":"m 1167 668 l 1167 -1 l 1026 -1 l 1026 371 q 933 301 974 321 q 827 276 892 282 q 610 268 763 269 q 385 275 451 268 q 279 304 319 282 q 179 386 239 326 q 93 481 117 449 q 63 551 69 514 q 56 668 56 588 l 56 972 l 194 972 l 194 667 q 199 589 194 614 q 221 542 204 564 q 282 475 238 519 q 344 428 317 440 q 424 411 371 415 q 610 407 478 407 q 797 411 743 407 q 878 428 850 415 q 940 475 906 440 q 1008 551 992 526 q 1026 615 1024 575 l 1026 972 l 1167 972 l 1167 668 z "},"Ц":{"ha":1236,"x_min":83,"x_max":1222,"o":"m 1125 169 l 1222 40 l 1222 -132 l 1083 -132 l 1083 0 l 1021 71 l 950 0 l 83 0 l 83 972 l 222 972 l 222 139 l 889 139 l 986 231 l 986 972 l 1125 972 l 1125 169 z "},"Ш":{"ha":1278,"x_min":83,"x_max":1194,"o":"m 1056 972 l 1194 972 l 1194 0 l 83 0 l 83 972 l 222 972 l 222 139 l 569 139 l 569 972 l 708 972 l 708 139 l 1056 139 l 1056 972 z "},"Щ":{"ha":1333,"x_min":83,"x_max":1292,"o":"m 1194 156 l 1292 40 l 1292 -132 l 1153 -132 l 1153 0 l 1090 71 l 1019 0 l 83 0 l 83 972 l 222 972 l 222 139 l 564 139 l 564 972 l 703 972 l 703 139 l 958 139 l 1056 231 l 1056 972 l 1194 972 l 1194 156 z "},"Ь":{"ha":1275,"x_min":83,"x_max":1192,"o":"m 1040 601 q 1151 488 1125 519 q 1185 432 1178 457 q 1192 350 1192 407 q 1185 269 1192 293 q 1151 213 1178 244 q 1040 97 1125 182 q 941 11 975 32 q 851 -15 907 -10 q 638 -21 796 -21 q 426 -15 482 -21 q 337 11 371 -10 q 235 97 303 32 l 222 110 l 222 0 l 83 0 l 83 972 l 222 972 l 222 589 l 235 601 q 333 684 300 664 q 423 709 367 704 q 638 714 479 714 q 852 709 796 714 q 942 684 908 704 q 1040 601 975 664 m 938 186 q 1022 273 1001 250 q 1048 309 1043 296 q 1053 349 1053 322 q 1048 394 1053 379 q 1022 431 1043 408 q 938 513 1001 453 q 879 558 901 547 q 813 572 857 569 q 638 575 768 575 q 463 572 507 575 q 396 558 418 569 q 338 513 374 547 q 253 426 274 449 q 227 390 232 404 q 222 349 222 376 q 227 309 222 322 q 253 273 232 296 q 338 186 274 250 q 397 136 375 149 q 464 121 419 124 q 638 118 508 118 q 811 121 767 118 q 878 136 856 124 q 938 186 900 149 z "},"Ъ":{"ha":1317,"x_min":28,"x_max":1233,"o":"m 1082 601 q 1193 488 1167 519 q 1226 432 1219 457 q 1233 350 1233 407 q 1226 269 1233 293 q 1193 213 1219 244 q 1082 97 1167 182 q 983 11 1017 32 q 893 -15 949 -10 q 679 -21 838 -21 q 468 -15 524 -21 q 378 11 413 -10 q 276 97 344 32 l 264 110 l 264 0 l 125 0 l 125 596 l 125 713 l 125 713 l 125 817 l 28 932 l 28 972 l 182 972 l 264 863 l 264 589 l 276 601 q 375 684 342 664 q 465 709 408 704 q 679 714 521 714 q 894 709 838 714 q 983 684 950 704 q 1082 601 1017 664 m 979 186 q 1064 273 1043 250 q 1090 309 1085 296 q 1094 349 1094 322 q 1090 394 1094 379 q 1064 431 1085 408 q 979 513 1043 453 q 921 558 943 547 q 854 572 899 569 q 679 575 810 575 q 504 572 549 575 q 438 558 460 569 q 379 513 415 547 q 294 426 315 449 q 269 390 274 404 q 264 349 264 376 q 269 309 264 322 q 294 273 274 296 q 379 186 315 250 q 439 136 417 149 q 506 121 461 124 q 679 118 550 118 q 853 121 808 118 q 919 136 897 124 q 979 186 942 149 z "},"Ы":{"ha":1525,"x_min":83,"x_max":1442,"o":"m 1040 601 q 1151 488 1125 519 q 1185 432 1178 457 q 1192 350 1192 407 q 1185 269 1192 293 q 1151 213 1178 244 q 1040 97 1125 182 q 941 11 975 32 q 851 -15 907 -10 q 638 -21 796 -21 q 426 -15 482 -21 q 337 11 371 -10 q 235 97 303 32 l 222 110 l 222 0 l 83 0 l 83 972 l 222 972 l 222 589 l 235 601 q 333 684 300 664 q 423 709 367 704 q 638 714 479 714 q 852 709 796 714 q 942 684 908 704 q 1040 601 975 664 m 1303 972 l 1442 972 l 1442 0 l 1303 0 l 1303 972 m 938 186 q 1022 273 1001 250 q 1048 309 1043 296 q 1053 349 1053 322 q 1048 394 1053 379 q 1022 431 1043 408 q 938 513 1001 453 q 879 558 901 547 q 813 572 857 569 q 638 575 768 575 q 463 572 507 575 q 396 558 418 569 q 338 513 374 547 q 253 426 274 449 q 227 390 232 404 q 222 349 222 376 q 227 309 222 322 q 253 273 232 296 q 338 186 274 250 q 397 136 375 149 q 464 121 419 124 q 638 118 508 118 q 811 121 767 118 q 878 136 856 124 q 938 186 900 149 z "},"Э":{"ha":1274,"x_min":83,"x_max":1190,"o":"m 1038 878 q 1149 759 1122 796 q 1183 673 1176 722 q 1190 489 1190 624 q 1183 305 1190 354 q 1150 218 1176 256 q 1039 97 1124 181 q 937 11 971 32 q 847 -15 903 -10 q 636 -21 792 -21 q 422 -15 478 -21 q 333 11 367 -10 q 233 97 299 32 q 119 238 149 182 q 85 376 90 293 l 225 376 q 258 284 233 328 q 336 186 282 240 q 396 136 374 149 q 463 121 418 124 q 636 118 507 118 q 810 121 765 118 q 876 136 854 124 q 936 186 899 149 q 1014 269 993 243 q 1042 328 1035 296 q 1051 425 1050 361 l 501 425 l 501 550 l 1051 550 q 1042 649 1050 617 q 1014 707 1035 681 q 935 789 993 733 q 877 836 899 825 q 811 850 856 847 q 636 853 767 853 q 461 850 506 853 q 395 836 417 847 q 338 789 374 825 q 255 691 279 735 q 224 592 231 647 l 83 592 q 100 694 88 653 q 144 778 113 736 q 235 878 175 819 q 332 962 299 942 q 422 987 365 982 q 636 992 478 992 q 851 987 794 992 q 940 962 907 982 q 1038 878 974 942 z "},"Ю":{"ha":1443,"x_min":83,"x_max":1360,"o":"m 1208 879 q 1319 760 1293 797 q 1353 673 1346 722 q 1360 489 1360 624 q 1353 306 1360 356 q 1319 219 1346 257 q 1208 97 1293 182 q 1111 11 1143 32 q 1031 -15 1079 -10 q 847 -21 982 -21 q 666 -15 714 -21 q 586 11 618 -10 q 486 97 554 32 q 383 208 410 172 q 346 285 356 243 q 335 417 336 328 l 222 417 l 222 0 l 83 0 l 83 972 l 222 972 l 222 556 l 335 556 q 345 692 336 649 q 382 769 354 735 q 488 878 410 803 q 583 962 551 942 q 663 987 614 982 q 847 992 711 992 q 1032 987 983 992 q 1112 962 1081 982 q 1208 879 1143 942 m 1106 186 q 1190 279 1169 250 q 1216 347 1211 308 q 1221 488 1221 385 q 1216 635 1221 596 q 1190 702 1211 674 q 1106 790 1169 731 q 1049 836 1069 825 q 992 850 1029 847 q 847 853 954 853 q 703 850 740 853 q 646 836 665 847 q 590 789 626 825 q 504 698 525 726 q 478 631 483 669 q 474 488 474 593 q 478 347 474 385 q 504 279 483 308 q 589 186 525 250 q 647 136 626 149 q 705 121 668 124 q 847 118 742 118 q 990 121 953 118 q 1047 136 1026 124 q 1106 186 1068 149 z "},"Я":{"ha":1247,"x_min":56,"x_max":1164,"o":"m 1164 972 l 1164 -1 l 1024 -1 l 1024 289 q 931 219 971 239 q 826 194 890 200 q 610 186 763 188 q 417 190 465 186 l 297 -1 l 143 -1 l 278 222 q 179 304 239 244 q 93 399 117 367 q 63 469 69 432 q 56 586 56 506 q 63 701 56 665 q 93 769 69 738 q 181 863 117 801 q 280 942 240 921 q 385 970 319 964 q 610 976 451 976 l 679 976 q 849 968 793 975 q 942 942 906 961 q 1024 878 978 922 l 1024 972 l 1164 972 m 938 393 q 1005 469 989 444 q 1024 533 1021 493 l 1024 636 q 1004 699 1021 675 q 936 774 988 724 q 883 815 907 803 q 816 832 860 828 q 676 838 772 836 l 610 838 q 423 834 476 838 q 342 818 369 831 q 283 774 315 806 q 222 706 239 729 q 199 659 204 683 q 194 585 194 635 q 199 507 194 532 q 221 460 204 482 q 282 393 238 438 q 344 346 317 358 q 424 329 371 333 q 610 325 478 325 q 795 329 742 325 q 876 346 849 333 q 938 393 903 358 z "},"а":{"ha":1324,"x_min":83,"x_max":1268,"o":"m 1268 35 l 1268 0 l 1110 0 l 1054 96 q 986 36 1017 56 q 916 8 956 17 q 810 0 876 0 l 353 0 q 270 10 296 1 q 197 50 244 18 q 122 111 144 86 q 91 169 99 136 q 83 269 83 203 q 91 368 83 335 q 122 426 99 401 q 199 489 144 451 q 270 529 244 521 q 353 538 296 538 l 871 538 q 980 507 928 538 q 1054 443 1032 476 l 1054 638 l 83 638 l 83 778 l 1194 778 l 1194 142 l 1268 35 m 1054 275 q 871 397 954 397 l 353 397 q 311 394 324 397 q 279 375 299 390 q 233 328 243 346 q 224 269 224 310 q 233 210 224 228 q 279 164 242 192 q 311 145 299 149 q 353 140 324 142 l 810 140 q 906 150 869 140 q 975 188 942 160 q 1054 274 1008 215 l 1054 275 z "},"б":{"ha":1275,"x_min":83,"x_max":1192,"o":"m 1040 601 q 1151 488 1125 519 q 1185 432 1178 457 q 1192 350 1192 407 q 1185 269 1192 293 q 1151 213 1178 244 q 1040 97 1125 182 q 941 11 975 32 q 851 -15 907 -10 q 638 -21 796 -21 q 426 -15 482 -21 q 337 11 371 -10 q 235 97 303 32 q 124 212 150 181 q 90 267 97 243 q 83 349 83 292 l 83 972 l 1083 972 l 1083 833 l 222 833 l 222 589 l 235 601 q 333 684 300 664 q 423 709 367 704 q 638 714 479 714 q 852 709 796 714 q 942 684 908 704 q 1040 601 975 664 m 938 186 q 1022 273 1001 250 q 1048 309 1043 296 q 1053 349 1053 322 q 1048 394 1053 379 q 1022 431 1043 408 q 938 513 1001 453 q 879 558 901 547 q 813 572 857 569 q 638 575 768 575 q 463 572 507 575 q 396 558 418 569 q 338 513 374 547 q 253 426 274 449 q 227 390 232 404 q 222 349 222 376 q 227 309 222 322 q 253 273 232 296 q 338 186 274 250 q 397 136 375 149 q 464 121 419 124 q 638 118 508 118 q 811 121 767 118 q 878 136 856 124 q 938 186 900 149 z "},"в":{"ha":1324,"x_min":56,"x_max":1240,"o":"m 1154 388 q 1224 313 1208 346 q 1240 221 1240 281 q 1233 138 1240 165 q 1203 88 1225 110 q 1126 29 1181 65 q 1053 -11 1079 -3 q 971 -21 1028 -19 q 853 -19 932 -19 l 583 -21 l 514 -21 q 381 -15 415 -19 q 323 6 346 -11 q 257 74 300 22 l 214 0 l 56 0 l 56 35 l 129 142 l 129 778 l 269 778 l 269 715 q 328 772 306 757 q 385 790 350 786 q 514 794 419 793 l 667 794 l 971 794 q 1053 785 1028 793 q 1126 744 1079 776 q 1203 686 1181 708 q 1233 636 1225 664 q 1240 553 1240 608 q 1224 460 1240 493 q 1154 388 1208 428 m 336 603 q 292 549 308 569 q 272 519 275 528 q 269 497 269 511 l 269 458 l 453 457 l 971 457 q 1013 460 1000 457 q 1044 479 1025 464 q 1092 521 1083 510 q 1100 553 1100 532 q 1091 590 1100 578 q 1044 631 1082 603 q 1013 649 1025 646 q 971 654 1000 653 l 514 654 q 413 652 439 654 q 374 641 388 650 q 336 603 360 632 m 1044 143 q 1091 183 1082 171 q 1100 221 1100 196 q 1092 253 1100 242 q 1044 294 1083 264 q 1013 313 1025 310 q 971 317 1000 317 l 453 317 l 269 315 l 269 276 q 272 254 269 263 q 292 225 275 246 q 336 171 308 204 q 374 133 360 142 q 413 122 388 124 q 514 119 439 119 l 971 119 q 1013 124 1000 121 q 1044 143 1025 128 z "},"г":{"ha":958,"x_min":83,"x_max":917,"o":"m 917 778 l 917 638 l 224 636 l 224 0 l 83 0 l 83 778 l 917 778 z "},"д":{"ha":1294,"x_min":21,"x_max":1274,"o":"m 1274 -139 l 1135 -139 l 1135 0 l 160 0 l 160 -139 l 21 -139 l 21 139 l 67 139 q 116 147 99 140 q 147 167 133 153 q 197 225 160 181 q 247 286 236 269 q 262 320 258 303 q 265 381 265 338 l 265 482 l 263 639 l 263 778 l 1097 778 l 1097 139 l 1274 139 l 1274 -139 m 958 139 l 958 639 l 406 639 l 404 482 l 404 388 q 400 287 404 317 q 377 228 396 257 q 308 139 358 199 l 958 139 z "},"е":{"ha":1275,"x_min":83,"x_max":1192,"o":"m 224 331 q 241 264 225 289 q 310 186 257 239 q 372 139 344 151 q 452 122 399 126 q 638 118 506 118 l 775 118 q 868 122 838 118 q 919 136 899 125 q 965 172 940 147 q 1013 223 997 204 q 1038 258 1029 242 l 1188 258 q 1157 180 1181 213 q 1068 83 1133 147 q 977 11 1014 32 q 890 -15 940 -10 q 725 -21 839 -21 l 638 -21 q 413 -14 479 -21 q 307 15 347 -7 q 207 97 267 38 q 121 192 144 160 q 90 262 97 225 q 83 379 83 299 q 90 514 83 472 q 121 589 97 556 q 208 683 144 622 q 308 763 268 742 q 413 791 347 785 q 638 797 479 797 q 864 791 797 797 q 969 763 931 785 q 1067 683 1008 742 q 1154 588 1131 621 q 1185 513 1178 554 q 1192 379 1192 472 l 1192 331 l 224 331 m 638 658 q 451 655 504 658 q 370 639 397 651 q 311 594 343 626 q 249 525 265 549 q 226 469 232 501 l 1049 469 q 1027 527 1043 504 q 964 594 1011 550 q 903 639 931 626 q 822 655 875 651 q 638 658 768 658 z "},"ё":{"ha":1275,"x_min":83,"x_max":1192,"o":"m 385 951 q 364 981 367 972 q 361 1019 361 989 q 365 1049 361 1039 q 385 1071 369 1058 q 417 1090 404 1086 q 474 1093 429 1093 q 530 1090 517 1093 q 560 1071 543 1086 q 581 1046 578 1056 q 585 1010 585 1036 q 581 978 585 986 q 560 951 578 969 q 528 931 543 935 q 457 928 514 928 q 410 931 422 928 q 385 951 399 935 m 708 951 q 688 981 690 972 q 685 1019 685 989 q 689 1049 685 1039 q 708 1071 693 1058 q 740 1090 728 1086 q 797 1093 753 1093 q 853 1090 840 1093 q 883 1071 867 1086 q 905 1046 901 1056 q 908 1010 908 1036 q 905 978 908 986 q 883 951 901 969 q 852 931 867 935 q 781 928 838 928 q 734 931 746 928 q 708 951 722 935 m 224 331 q 241 264 225 289 q 310 186 257 239 q 372 139 344 151 q 452 122 399 126 q 638 118 506 118 l 775 118 q 868 122 838 118 q 919 136 899 125 q 965 172 940 147 q 1013 223 997 204 q 1038 258 1029 242 l 1188 258 q 1157 180 1181 213 q 1068 83 1133 147 q 977 11 1014 32 q 890 -15 940 -10 q 725 -21 839 -21 l 638 -21 q 413 -14 479 -21 q 307 15 347 -7 q 207 97 267 38 q 121 192 144 160 q 90 262 97 225 q 83 379 83 299 q 90 514 83 472 q 121 589 97 556 q 208 683 144 622 q 308 763 268 742 q 413 791 347 785 q 638 797 479 797 q 864 791 797 797 q 969 763 931 785 q 1067 683 1008 742 q 1154 588 1131 621 q 1185 513 1178 554 q 1192 379 1192 472 l 1192 331 l 224 331 m 638 658 q 451 655 504 658 q 370 639 397 651 q 311 594 343 626 q 249 525 265 549 q 226 469 232 501 l 1049 469 q 1027 527 1043 504 q 964 594 1011 550 q 903 639 931 626 q 822 655 875 651 q 638 658 768 658 z "},"ж":{"ha":1597,"x_min":28,"x_max":1569,"o":"m 1569 778 l 1146 414 l 1569 0 l 1386 0 l 1046 326 l 869 175 l 869 0 l 728 0 l 728 175 l 550 328 l 211 0 l 28 0 l 450 414 l 28 778 l 231 778 l 728 351 l 728 778 l 868 778 l 869 351 l 1367 778 l 1569 778 z "},"з":{"ha":1278,"x_min":83,"x_max":1194,"o":"m 1108 388 q 1178 313 1163 346 q 1194 221 1194 281 q 1187 138 1194 165 q 1157 88 1179 110 q 1081 29 1135 65 q 1008 -11 1033 -3 q 925 -21 982 -19 l 340 -19 q 284 -15 303 -19 q 238 13 265 -10 q 157 90 211 35 q 104 153 119 129 q 86 201 89 178 q 83 276 83 224 l 222 276 q 228 231 222 247 q 258 182 233 214 q 302 137 285 149 q 351 122 319 125 q 468 119 382 119 l 925 119 q 967 124 954 121 q 999 143 979 128 q 1045 183 1036 171 q 1054 221 1054 196 q 1045 253 1054 242 q 999 294 1036 264 q 967 313 979 310 q 925 317 954 317 l 713 317 q 564 315 590 317 l 529 315 l 529 458 l 564 458 q 713 457 590 457 l 925 457 q 967 460 954 457 q 999 479 979 464 q 1045 521 1036 510 q 1054 553 1054 532 q 1045 590 1054 578 q 999 631 1036 603 q 967 649 979 646 q 925 654 954 653 l 468 654 q 351 651 382 654 q 303 637 321 649 q 258 592 285 625 q 228 543 233 560 q 222 497 222 526 l 83 497 q 86 573 83 550 q 104 620 89 596 q 157 683 119 644 q 238 761 211 739 q 284 788 265 783 q 340 793 303 793 l 925 794 q 1008 785 982 793 q 1081 744 1033 776 q 1157 686 1135 708 q 1187 636 1179 664 q 1194 553 1194 608 q 1178 460 1194 493 q 1108 388 1163 428 z "},"и":{"ha":1139,"x_min":83,"x_max":1056,"o":"m 83 0 l 83 778 l 224 778 l 224 139 l 856 778 l 1056 778 l 1056 0 l 915 0 l 915 639 l 275 0 l 83 0 z "},"й":{"ha":1139,"x_min":83,"x_max":1056,"o":"m 357 1049 q 319 1084 336 1067 q 272 1135 303 1101 l 371 1233 q 391 1208 379 1224 q 419 1176 403 1192 q 460 1138 435 1160 q 488 1119 475 1124 q 531 1113 500 1114 q 613 1111 563 1111 q 668 1115 653 1111 q 699 1138 683 1119 l 789 1239 l 888 1140 l 801 1049 q 742 997 765 1011 q 686 977 719 982 q 579 972 653 972 q 483 977 514 972 q 426 997 451 982 q 357 1049 401 1011 m 888 1140 m 856 778 l 1056 778 l 1056 0 l 915 0 l 915 639 l 275 0 l 83 0 l 83 778 l 224 778 l 224 139 l 856 778 z "},"к":{"ha":1135,"x_min":83,"x_max":1107,"o":"m 1107 778 l 649 463 l 1107 0 l 910 0 l 522 375 l 225 169 l 225 0 l 83 0 l 83 778 l 224 778 l 225 336 l 876 778 l 1107 778 z "},"л":{"ha":1181,"x_min":28,"x_max":1097,"o":"m 1097 778 l 1097 0 l 958 0 l 958 639 l 406 639 l 404 482 l 404 388 q 400 287 404 317 q 376 226 396 257 q 304 135 357 196 q 212 35 240 60 q 151 6 183 11 q 28 0 118 0 l 28 139 q 103 142 82 138 q 140 161 125 147 q 197 225 154 175 q 247 286 236 269 q 262 320 258 303 q 265 381 265 338 l 265 482 l 263 639 l 263 778 l 1097 778 z "},"м":{"ha":1281,"x_min":83,"x_max":1197,"o":"m 1031 778 l 1197 778 l 1197 0 l 1058 0 l 1058 593 l 721 146 l 563 146 l 222 594 l 222 0 l 83 0 l 83 778 l 250 778 l 647 278 l 1031 778 z "},"н":{"ha":1278,"x_min":83,"x_max":1194,"o":"m 1056 778 l 1194 778 l 1194 0 l 1056 0 l 1056 319 l 222 319 l 222 0 l 83 0 l 83 778 l 222 778 l 222 458 l 1056 458 l 1056 778 z "},"о":{"ha":1275,"x_min":83,"x_max":1192,"o":"m 638 -21 q 413 -14 479 -21 q 307 15 347 -7 q 207 97 267 38 q 121 192 144 160 q 90 262 97 225 q 83 379 83 299 q 90 514 83 472 q 121 589 97 556 q 208 683 144 622 q 308 763 268 742 q 413 791 347 785 q 638 797 479 797 q 864 791 797 797 q 969 763 931 785 q 1067 683 1008 742 q 1154 588 1131 621 q 1185 513 1178 554 q 1192 379 1192 472 q 1185 260 1192 297 q 1154 190 1178 222 q 1068 97 1131 158 q 965 15 1006 38 q 858 -14 924 -7 q 638 -21 793 -21 m 638 118 q 823 122 769 118 q 903 139 876 126 q 965 186 931 151 q 1026 253 1010 231 q 1048 300 1043 275 q 1053 378 1053 325 q 1048 475 1053 444 q 1026 528 1043 506 q 964 594 1008 551 q 903 639 931 626 q 822 655 875 651 q 638 658 768 658 q 451 655 504 658 q 370 639 397 651 q 311 594 343 626 q 249 526 267 550 q 227 472 232 501 q 222 378 222 443 q 227 300 222 325 q 249 253 232 275 q 310 186 265 231 q 372 139 344 151 q 452 122 399 126 q 638 118 506 118 z "},"п":{"ha":1278,"x_min":83,"x_max":1194,"o":"m 1194 778 l 1194 0 l 1056 0 l 1056 639 l 222 639 l 222 0 l 83 0 l 83 778 l 1194 778 z "},"р":{"ha":1275,"x_min":83,"x_max":1192,"o":"m 1067 683 q 1154 588 1131 621 q 1185 513 1178 554 q 1192 379 1192 472 q 1185 260 1192 297 q 1154 190 1178 222 q 1068 97 1131 158 q 965 15 1006 38 q 858 -14 924 -7 q 638 -21 793 -21 q 420 -15 485 -21 q 315 10 356 -10 q 224 81 275 31 l 224 -326 l 83 -326 l 83 778 l 222 778 l 224 697 q 315 766 275 746 q 420 792 354 786 q 638 797 486 797 q 864 791 797 797 q 969 763 931 785 q 1067 683 1008 742 m 965 186 q 1026 253 1010 231 q 1048 300 1043 275 q 1053 378 1053 325 q 1048 475 1053 444 q 1026 528 1043 506 q 964 594 1008 551 q 903 639 931 626 q 822 655 875 651 q 638 658 768 658 q 451 655 504 658 q 370 639 397 651 q 311 594 343 626 q 243 516 260 543 q 224 442 226 489 l 224 326 q 242 262 226 286 q 310 186 258 238 q 372 139 344 151 q 452 122 399 126 q 638 118 506 118 q 823 122 769 118 q 903 139 876 126 q 965 186 931 151 z "},"с":{"ha":1274,"x_min":83,"x_max":1190,"o":"m 83 379 q 90 514 83 472 q 121 589 97 556 q 208 683 144 622 q 308 763 268 742 q 413 791 347 785 q 638 797 479 797 q 864 791 797 797 q 969 763 931 785 q 1067 683 1008 742 q 1146 599 1122 629 q 1179 537 1169 569 q 1190 447 1189 504 l 1051 447 q 1031 519 1047 493 q 964 594 1014 546 q 903 639 931 626 q 822 655 875 651 q 638 658 768 658 q 451 655 504 658 q 370 639 397 651 q 311 594 343 626 q 249 526 267 550 q 227 472 232 501 q 222 378 222 443 q 227 300 222 325 q 249 253 232 275 q 310 186 265 231 q 372 139 344 151 q 452 122 399 126 q 638 118 506 118 q 823 122 769 118 q 903 139 876 126 q 965 186 931 151 q 1028 256 1011 232 q 1050 308 1044 279 l 1190 308 q 1178 233 1188 263 q 1144 176 1168 204 q 1068 97 1121 149 q 965 15 1006 38 q 858 -14 924 -7 q 638 -21 793 -21 q 413 -14 479 -21 q 307 15 347 -7 q 207 97 267 38 q 121 192 144 160 q 90 262 97 225 q 83 379 83 299 z "},"т":{"ha":1856,"x_min":56,"x_max":1772,"o":"m 1772 0 l 1633 0 l 1631 214 l 1633 381 q 1628 473 1633 444 q 1606 526 1624 501 q 1544 594 1589 550 q 1490 639 1513 626 q 1430 655 1468 651 q 1301 658 1392 658 q 1185 655 1219 658 q 1128 639 1150 651 q 1072 594 1106 626 l 1033 556 q 1049 491 1046 528 q 1053 381 1053 454 l 1053 0 l 914 0 l 914 378 q 909 472 914 443 q 887 526 904 501 q 825 594 869 550 q 772 639 793 626 q 715 655 750 651 q 596 658 679 658 q 479 655 514 658 q 422 639 444 651 q 367 594 400 626 q 309 536 325 554 q 288 501 293 518 q 279 450 282 483 l 281 0 l 139 0 l 139 632 l 56 742 l 56 778 l 210 778 l 267 686 q 356 763 322 742 q 438 791 390 785 q 596 797 486 797 q 752 791 704 797 q 835 763 800 785 q 928 683 869 740 q 943 668 943 668 q 1040 756 1003 729 q 1121 790 1078 782 q 1249 797 1164 797 l 1301 797 q 1467 791 1417 797 q 1553 763 1518 785 q 1647 683 1588 740 q 1735 589 1711 622 q 1765 515 1758 556 q 1772 381 1772 474 l 1772 0 z "},"у":{"ha":1275,"x_min":83,"x_max":1192,"o":"m 1192 778 l 1192 472 l 1192 379 l 1192 74 q 1185 -46 1192 -8 q 1154 -115 1178 -83 q 1068 -208 1131 -147 q 965 -290 1006 -268 q 858 -319 924 -312 q 638 -326 793 -326 q 413 -319 479 -326 q 307 -290 347 -312 q 207 -208 267 -268 q 117 -108 140 -142 q 88 -26 93 -74 l 233 -26 q 258 -64 242 -44 q 310 -119 274 -83 q 372 -167 344 -154 q 452 -183 399 -179 q 638 -187 506 -187 q 823 -183 769 -187 q 903 -167 876 -179 q 965 -119 931 -154 q 1026 -53 1010 -75 q 1048 -6 1043 -31 q 1053 72 1053 19 l 1053 83 q 957 12 997 32 q 851 -15 917 -8 q 638 -21 786 -21 q 413 -14 479 -21 q 307 15 347 -7 q 207 97 267 38 q 121 192 144 160 q 90 262 97 225 q 83 379 83 299 l 83 778 l 224 778 q 222 378 222 763 q 227 300 222 325 q 249 253 232 275 q 310 186 265 231 q 372 139 344 151 q 452 122 399 126 q 638 118 506 118 q 823 122 769 118 q 903 139 876 126 q 965 186 931 151 q 1022 247 1006 226 q 1044 288 1038 267 q 1053 346 1051 310 q 1052 442 1053 415 q 1051 472 1051 468 l 1053 472 q 1051 778 1053 767 l 1192 778 z "},"ф":{"ha":1856,"x_min":83,"x_max":1772,"o":"m 1647 689 q 1735 593 1711 626 q 1765 519 1758 560 q 1772 385 1772 478 q 1765 265 1772 303 q 1735 197 1758 228 q 1649 104 1711 165 q 1549 22 1586 44 q 1458 -8 1511 -1 q 1288 -15 1406 -15 q 1158 -9 1200 -15 q 1083 17 1117 -3 q 997 88 1049 38 l 997 -326 l 858 -326 l 858 83 q 767 12 804 32 q 678 -15 729 -8 q 513 -21 626 -21 q 378 -14 421 -21 q 300 16 335 -7 q 207 97 265 39 q 121 192 144 160 q 90 262 97 225 q 83 379 83 299 q 90 514 83 472 q 121 589 97 556 q 208 683 144 622 q 301 763 267 740 q 378 791 336 785 q 513 797 421 797 q 683 792 631 797 q 772 766 736 786 q 858 697 808 746 l 858 778 l 997 778 l 997 703 q 1082 772 1049 751 q 1158 797 1115 792 q 1288 803 1200 803 q 1463 796 1410 803 q 1553 767 1517 789 q 1647 689 1589 746 m 1546 192 q 1607 258 1590 236 q 1628 306 1624 281 q 1633 383 1633 331 q 1628 481 1633 450 q 1606 534 1624 511 q 1544 600 1589 557 q 1487 644 1511 632 q 1422 660 1463 657 q 1288 664 1382 664 q 1191 660 1221 664 q 1140 644 1161 657 q 1086 600 1118 632 q 1024 531 1042 556 q 1002 478 1007 507 q 997 383 997 449 q 1002 306 997 331 q 1024 258 1007 281 q 1085 192 1040 236 q 1140 145 1118 158 q 1192 128 1163 132 q 1288 124 1222 124 q 1422 128 1382 124 q 1488 145 1463 132 q 1546 192 1513 158 m 771 186 q 832 253 815 231 q 853 300 849 275 q 858 378 858 325 q 853 475 858 444 q 831 528 849 506 q 769 594 814 551 q 712 639 736 626 q 647 655 688 651 q 513 658 607 658 q 416 655 446 658 q 365 639 386 651 q 311 594 343 626 q 249 526 267 550 q 227 472 232 501 q 222 378 222 443 q 227 300 222 325 q 249 253 232 275 q 310 186 265 231 q 365 140 343 153 q 417 122 388 126 q 513 118 447 118 q 647 122 607 118 q 713 140 688 126 q 771 186 738 153 z "},"х":{"ha":1164,"x_min":28,"x_max":1136,"o":"m 28 778 l 235 778 l 561 479 l 604 479 l 929 778 l 1136 778 l 703 386 l 1129 0 l 922 0 l 604 292 l 561 292 l 242 0 l 35 0 l 461 386 l 28 778 z "},"ч":{"ha":1111,"x_min":56,"x_max":1028,"o":"m 1028 585 l 1028 -1 l 888 -1 l 888 288 q 797 218 835 238 q 705 192 758 199 q 526 185 651 186 q 362 192 413 185 q 275 221 311 199 q 179 303 239 243 q 93 398 117 365 q 63 467 69 431 q 56 585 56 504 l 56 778 l 194 778 l 194 583 q 199 506 194 531 q 221 458 204 481 q 282 392 238 436 q 340 345 315 358 q 401 328 364 332 q 526 324 439 324 q 693 336 628 324 q 801 392 758 349 q 869 467 853 443 q 888 532 885 492 l 888 778 l 1028 778 l 1028 585 z "},"ц":{"ha":1264,"x_min":83,"x_max":1222,"o":"m 1125 169 l 1222 40 l 1222 -132 l 1083 -132 l 1083 0 l 1021 71 l 950 0 l 83 0 l 83 778 l 222 778 l 222 139 l 889 139 l 986 231 l 986 778 l 1125 778 l 1125 169 z "},"ш":{"ha":1278,"x_min":83,"x_max":1194,"o":"m 1056 778 l 1194 778 l 1194 0 l 83 0 l 83 778 l 222 778 l 222 139 l 569 139 l 569 778 l 708 778 l 708 139 l 1056 139 l 1056 778 z "},"щ":{"ha":1333,"x_min":83,"x_max":1292,"o":"m 1194 156 l 1292 40 l 1292 -132 l 1153 -132 l 1153 0 l 1090 71 l 1019 0 l 83 0 l 83 778 l 222 778 l 222 139 l 563 139 l 563 778 l 701 778 l 701 139 l 958 139 l 1056 231 l 1056 778 l 1194 778 l 1194 156 z "},"ь":{"ha":1324,"x_min":56,"x_max":1240,"o":"m 1125 489 q 1202 426 1179 451 q 1233 368 1225 401 q 1240 269 1240 335 q 1233 169 1240 203 q 1202 111 1225 136 q 1126 50 1179 86 q 1053 10 1079 18 q 971 0 1028 1 l 514 0 q 408 8 447 0 q 338 36 368 17 q 269 96 307 56 l 214 0 l 56 0 l 56 35 l 129 142 l 129 778 l 269 778 l 269 443 q 344 507 292 476 q 453 538 396 538 l 971 538 q 1053 529 1028 538 q 1125 489 1079 521 m 1044 164 q 1091 210 1082 192 q 1100 269 1100 228 q 1090 328 1100 310 q 1044 375 1081 346 q 1013 394 1025 390 q 971 397 1000 397 l 453 397 q 269 275 369 397 l 269 274 q 349 188 315 215 q 418 150 382 160 q 514 140 454 140 l 971 140 q 1013 145 1000 142 q 1044 164 1025 149 z "},"ъ":{"ha":1324,"x_min":56,"x_max":1240,"o":"m 1125 489 q 1202 426 1179 451 q 1233 368 1225 401 q 1240 269 1240 335 q 1233 169 1240 203 q 1202 111 1225 136 q 1126 50 1179 86 q 1053 10 1079 18 q 971 0 1028 1 l 514 0 q 408 8 447 0 q 338 36 368 17 q 269 96 307 56 l 214 0 l 56 0 l 56 35 l 129 142 l 129 636 l 56 743 l 56 778 l 214 778 l 269 682 l 269 443 q 344 507 292 476 q 453 538 396 538 l 971 538 q 1053 529 1028 538 q 1125 489 1079 521 m 1044 164 q 1091 210 1082 192 q 1100 269 1100 228 q 1090 328 1100 310 q 1044 375 1081 346 q 1013 394 1025 390 q 971 397 1000 397 l 453 397 q 269 275 369 397 l 269 274 q 349 188 315 215 q 418 150 382 160 q 514 140 454 140 l 971 140 q 1013 145 1000 142 q 1044 164 1025 149 z "},"ы":{"ha":1576,"x_min":56,"x_max":1493,"o":"m 1125 489 q 1202 426 1179 451 q 1233 368 1225 401 q 1240 269 1240 335 q 1233 169 1240 203 q 1202 111 1225 136 q 1126 50 1179 86 q 1053 10 1079 18 q 971 0 1028 1 l 514 0 q 408 8 447 0 q 338 36 368 17 q 269 96 307 56 l 214 0 l 56 0 l 56 35 l 129 142 l 129 778 l 269 778 l 269 443 q 344 507 292 476 q 453 538 396 538 l 971 538 q 1053 529 1028 538 q 1125 489 1079 521 m 1354 778 l 1493 778 l 1493 0 l 1354 0 l 1354 778 m 1044 164 q 1091 210 1082 192 q 1100 269 1100 228 q 1090 328 1100 310 q 1044 375 1081 346 q 1013 394 1025 390 q 971 397 1000 397 l 453 397 q 269 275 369 397 l 269 274 q 349 188 315 215 q 418 150 382 160 q 514 140 454 140 l 971 140 q 1013 145 1000 142 q 1044 164 1025 149 z "},"э":{"ha":1274,"x_min":83,"x_max":1190,"o":"m 1065 683 q 1153 589 1129 622 q 1183 514 1176 556 q 1190 379 1190 472 q 1183 262 1190 299 q 1153 192 1176 225 q 1067 97 1129 160 q 967 15 1007 38 q 860 -14 926 -7 q 636 -21 794 -21 q 415 -14 481 -21 q 309 15 350 -7 q 206 97 268 38 q 129 176 153 149 q 96 233 106 204 q 83 308 86 263 l 224 308 q 246 256 229 279 q 308 186 263 232 q 370 139 343 151 q 451 122 397 126 q 636 118 504 118 q 822 122 768 118 q 902 139 875 126 q 964 186 929 151 q 1028 258 1013 235 q 1049 313 1044 281 l 511 313 l 511 438 l 1050 438 q 1031 514 1047 486 q 963 594 1015 542 q 903 639 931 626 q 823 655 876 651 q 636 658 769 658 q 452 655 506 658 q 371 639 399 651 q 310 594 343 626 q 243 519 260 546 q 222 447 226 493 l 83 447 q 94 537 85 504 q 128 599 104 569 q 207 683 151 629 q 304 763 265 742 q 410 791 343 785 q 636 797 476 797 q 860 791 794 797 q 966 763 926 785 q 1065 683 1006 742 z "},"ю":{"ha":1556,"x_min":83,"x_max":1472,"o":"m 1347 689 q 1435 593 1411 626 q 1465 519 1458 560 q 1472 385 1472 478 q 1465 265 1472 303 q 1435 197 1458 228 q 1349 104 1411 165 q 1242 21 1285 43 q 1120 -8 1199 -1 q 849 -15 1042 -15 q 672 -8 725 -15 q 581 21 618 -1 q 485 103 544 43 q 408 185 432 156 q 375 243 385 214 q 363 319 365 272 l 222 319 l 222 0 l 83 0 l 83 778 l 222 778 l 222 458 l 363 458 q 375 546 365 514 q 408 607 385 578 q 486 689 432 636 q 581 768 544 746 q 672 797 618 790 q 849 803 726 803 q 1124 796 1044 803 q 1246 768 1204 789 q 1347 689 1288 747 m 1246 192 q 1307 258 1290 236 q 1328 306 1324 281 q 1333 383 1333 331 q 1328 481 1333 450 q 1306 534 1324 511 q 1244 600 1289 557 q 1175 645 1206 633 q 1080 660 1144 657 q 849 664 1015 664 q 710 660 751 664 q 645 644 669 657 q 589 600 621 632 q 527 531 544 556 q 505 478 510 507 q 500 383 500 449 q 505 306 500 331 q 526 258 510 281 q 588 192 543 236 q 646 145 621 158 q 712 128 671 132 q 849 124 753 124 q 1083 128 1017 124 q 1181 144 1150 132 q 1246 192 1211 157 z "},"я":{"ha":1325,"x_min":83,"x_max":1269,"o":"m 1269 778 l 1269 743 l 1196 636 l 1196 0 l 1056 0 l 1056 269 q 960 198 1000 218 q 854 172 919 178 q 640 165 789 165 l 488 165 l 383 0 l 229 0 l 332 171 q 260 205 290 179 q 178 293 229 231 q 113 378 132 350 q 89 432 94 407 q 83 503 83 457 q 89 561 83 540 q 113 607 94 582 q 178 679 132 632 q 265 762 236 739 q 324 793 293 785 q 413 801 354 801 l 640 803 q 863 797 796 803 q 968 769 929 790 q 1063 694 1007 749 l 1111 778 l 1269 778 m 968 372 q 1041 450 1026 431 q 1056 486 1056 469 q 1041 524 1056 504 q 967 600 1026 543 q 901 645 928 633 q 822 660 874 657 q 640 664 769 664 l 439 664 q 369 658 393 664 q 327 638 346 653 q 274 583 308 622 q 231 530 239 544 q 222 496 222 515 q 231 447 222 464 q 276 388 240 431 q 327 333 310 349 q 365 311 344 317 q 422 306 385 306 l 640 304 q 826 308 772 304 q 906 325 879 313 q 968 372 933 338 z "},"⁄":{"ha":833,"x_min":0,"x_max":0,"o":""},"*":{"ha":628,"x_min":83,"x_max":544,"o":"m 86 707 l 247 750 l 247 769 l 83 821 l 182 958 l 258 871 l 244 972 l 383 972 l 369 871 l 446 958 l 544 821 l 381 769 l 381 750 l 544 703 l 446 568 l 374 657 l 383 556 l 244 556 l 254 657 l 185 572 l 86 707 z "},"\\":{"ha":547,"x_min":-56,"x_max":603,"o":"m 100 972 l 603 -326 l 447 -326 l -56 972 l 100 972 z "},"·":{"ha":833,"x_min":0,"x_max":0,"o":""},"•":{"ha":833,"x_min":0,"x_max":0,"o":""},":":{"ha":363,"x_min":69,"x_max":293,"o":"m 165 482 q 119 485 131 482 q 93 506 107 489 q 72 535 75 526 q 69 574 69 543 q 74 603 69 593 q 93 625 78 613 q 125 644 113 640 q 182 647 138 647 q 238 644 225 647 q 268 625 251 640 q 290 599 286 608 q 293 564 293 590 q 290 532 293 540 q 268 506 286 524 q 237 485 251 489 q 165 482 222 482 m 165 126 q 119 130 131 126 q 93 150 107 133 q 72 179 75 171 q 69 218 69 188 q 74 247 69 238 q 93 269 78 257 q 125 288 113 285 q 182 292 138 292 q 238 288 225 292 q 268 269 251 285 q 290 244 286 254 q 293 208 293 235 q 290 176 293 185 q 268 150 286 168 q 237 130 251 133 q 165 126 222 126 z "},",":{"ha":363,"x_min":69,"x_max":293,"o":"m 293 67 l 293 67 q 281 14 293 47 q 247 -51 268 -19 q 179 -126 217 -101 l 122 -126 l 122 -101 l 146 0 q 115 6 124 1 q 93 24 106 10 q 72 53 75 44 q 69 92 69 61 q 74 121 69 111 q 93 143 78 131 q 125 162 113 158 q 182 165 138 165 q 238 162 225 165 q 268 143 251 158 q 290 117 286 126 q 293 82 293 108 l 293 67 z "},"…":{"ha":833,"x_min":0,"x_max":0,"o":""},"!":{"ha":363,"x_min":69,"x_max":293,"o":"m 89 972 l 271 972 l 271 947 l 243 458 l 243 249 l 118 249 l 118 458 l 89 947 l 89 972 m 165 0 q 119 3 131 0 q 93 24 107 7 q 72 53 75 44 q 69 92 69 61 q 74 121 69 111 q 93 143 78 131 q 125 162 113 158 q 182 165 138 165 q 238 162 225 165 q 268 143 251 158 q 290 117 286 126 q 293 82 293 108 q 290 50 293 58 q 268 24 286 42 q 237 3 251 7 q 165 0 222 0 z "},"¡":{"ha":833,"x_min":0,"x_max":0,"o":""},"#":{"ha":1214,"x_min":90,"x_max":1158,"o":"m 1158 972 l 1061 721 l 1157 721 l 1157 582 l 1007 582 l 932 386 l 1063 386 l 1063 247 l 878 247 l 782 0 l 633 0 l 729 247 l 335 247 l 239 0 l 90 0 l 186 247 l 90 247 l 90 386 l 240 386 l 315 582 l 185 582 l 185 721 l 369 721 l 467 972 l 615 972 l 518 721 l 913 721 l 1010 972 l 1158 972 m 783 386 l 858 582 l 464 582 l 389 386 l 783 386 z "},".":{"ha":363,"x_min":69,"x_max":293,"o":"m 165 0 q 119 3 131 0 q 93 24 107 7 q 72 53 75 44 q 69 92 69 61 q 74 121 69 111 q 93 143 78 131 q 125 162 113 158 q 182 165 138 165 q 238 162 225 165 q 268 143 251 158 q 290 117 286 126 q 293 82 293 108 q 290 50 293 58 q 268 24 286 42 q 237 3 251 7 q 165 0 222 0 z "},"?":{"ha":1261,"x_min":83,"x_max":1179,"o":"m 83 572 q 93 695 83 654 q 135 773 103 736 q 247 878 167 810 q 352 956 311 933 q 449 985 393 978 q 626 992 506 992 q 804 985 747 992 q 902 956 861 978 q 1010 879 943 935 q 1126 773 1093 808 q 1169 706 1158 738 q 1178 615 1179 674 q 1164 497 1176 528 q 1090 438 1151 465 q 860 365 1029 411 q 782 346 806 350 q 713 325 731 333 q 688 301 694 317 q 682 246 682 285 l 544 246 l 544 349 q 564 405 544 386 q 643 444 583 424 q 860 507 703 465 q 981 544 946 531 q 1027 569 1017 557 q 1038 606 1038 582 q 1030 665 1038 644 q 995 711 1022 685 q 897 794 968 738 q 828 834 856 822 q 758 849 800 846 q 626 853 717 853 q 489 849 532 853 q 421 834 446 846 q 361 793 396 822 q 265 706 293 735 q 229 649 238 676 q 221 571 221 622 l 83 571 l 83 572 m 601 0 q 555 3 567 0 q 529 24 543 7 q 508 53 511 44 q 506 92 506 61 q 510 121 506 111 q 529 143 514 131 q 561 162 549 158 q 618 165 574 165 q 674 162 661 165 q 704 143 688 158 q 726 118 722 128 q 729 82 729 108 q 726 50 729 58 q 704 24 722 42 q 673 3 688 7 q 601 0 658 0 z "},"¿":{"ha":833,"x_min":0,"x_max":0,"o":""},"\"":{"ha":642,"x_min":69,"x_max":572,"o":"m 268 950 q 290 925 286 935 q 293 889 293 915 l 293 874 l 293 874 q 281 822 293 854 q 247 756 268 790 q 179 681 217 706 l 122 681 l 122 706 l 146 807 q 115 813 124 808 q 93 831 106 817 q 72 860 75 851 q 69 899 69 868 q 74 928 69 918 q 93 950 78 938 q 125 969 113 965 q 182 972 138 972 q 238 969 225 972 q 268 950 251 965 m 572 874 l 572 874 q 560 822 572 854 q 526 756 547 790 q 458 681 496 706 l 401 681 l 401 706 l 425 807 q 394 813 403 808 q 372 831 385 817 q 351 860 354 851 q 349 899 349 868 q 353 928 349 918 q 372 950 357 938 q 404 969 392 965 q 461 972 417 972 q 517 969 504 972 q 547 950 531 965 q 569 925 565 935 q 572 889 572 915 l 572 874 z "},"'":{"ha":363,"x_min":69,"x_max":293,"o":"m 293 874 l 293 874 q 281 822 293 854 q 247 756 268 790 q 179 681 217 706 l 122 681 l 122 706 l 146 807 q 115 813 124 808 q 93 831 106 817 q 72 860 75 851 q 69 899 69 868 q 74 928 69 918 q 93 950 78 938 q 125 969 113 965 q 182 972 138 972 q 238 969 225 972 q 268 950 251 965 q 290 925 286 935 q 293 889 293 915 l 293 874 z "},";":{"ha":363,"x_min":69,"x_max":293,"o":"m 93 506 q 72 535 75 526 q 69 574 69 543 q 74 603 69 593 q 93 625 78 613 q 125 644 113 640 q 182 647 138 647 q 238 644 225 647 q 268 625 251 640 q 290 599 286 608 q 293 564 293 590 q 290 532 293 540 q 268 506 286 524 q 237 485 251 489 q 165 482 222 482 q 119 485 131 482 q 93 506 107 489 m 268 269 q 290 244 286 254 q 293 208 293 235 l 293 193 l 293 193 q 281 142 293 174 q 247 75 268 110 q 179 0 217 25 l 122 0 l 122 25 l 146 126 q 115 132 124 128 q 93 150 106 136 q 72 179 75 171 q 69 218 69 188 q 74 247 69 238 q 93 269 78 257 q 125 288 113 285 q 182 292 138 292 q 238 288 225 292 q 268 269 251 285 z "},"/":{"ha":658,"x_min":-56,"x_max":603,"o":"m 447 972 l 603 972 l 100 -326 l -56 -326 l 447 972 z "},"_":{"ha":1111,"x_min":69,"x_max":1042,"o":"m 69 139 l 1042 139 l 1042 0 l 69 0 l 69 139 z "},"{":{"ha":833,"x_min":0,"x_max":0,"o":""},"}":{"ha":833,"x_min":0,"x_max":0,"o":""},"[":{"ha":833,"x_min":0,"x_max":0,"o":""},"]":{"ha":833,"x_min":0,"x_max":0,"o":""},"(":{"ha":506,"x_min":83,"x_max":506,"o":"m 506 -271 q 386 -260 426 -269 q 318 -231 346 -251 q 235 -154 290 -210 q 124 -37 151 -71 q 90 31 97 -4 q 83 150 83 67 l 83 836 q 90 960 83 925 q 124 1028 97 994 q 236 1143 151 1061 q 318 1217 290 1197 q 385 1246 346 1238 q 506 1256 425 1254 l 506 1117 q 425 1110 451 1115 q 383 1093 399 1104 q 339 1054 367 1082 q 253 971 274 994 q 227 922 232 947 q 222 835 222 897 l 222 150 q 228 71 222 94 q 253 23 233 47 q 338 -65 274 -1 q 385 -108 368 -96 q 427 -125 401 -119 q 506 -132 453 -131 l 506 -271 z "},")":{"ha":506,"x_min":0,"x_max":422,"o":"m 0 -132 q 78 -125 53 -131 q 121 -108 104 -119 q 168 -65 138 -96 q 252 23 232 -1 q 278 71 272 47 q 283 150 283 94 l 283 835 q 278 922 283 897 q 253 971 274 947 q 167 1054 232 994 q 123 1093 139 1082 q 81 1110 107 1104 q 0 1117 54 1115 l 0 1256 q 120 1246 81 1254 q 188 1217 160 1238 q 269 1143 215 1197 q 381 1028 354 1061 q 415 960 408 994 q 422 836 422 925 l 422 150 q 415 31 422 67 q 381 -37 408 -4 q 271 -154 354 -71 q 188 -231 215 -210 q 119 -260 160 -251 q 0 -271 79 -269 l 0 -132 z "},"—":{"ha":1278,"x_min":83,"x_max":1194,"o":"m 83 489 l 1194 489 l 1194 350 l 83 350 l 83 489 z "},"–":{"ha":833,"x_min":0,"x_max":0,"o":""},"-":{"ha":1000,"x_min":83,"x_max":917,"o":"m 83 489 l 917 489 l 917 350 l 83 350 l 83 489 z "},"«":{"ha":801,"x_min":83,"x_max":718,"o":"m 83 319 q 86 420 83 393 q 101 467 89 447 q 153 526 114 486 q 255 631 226 606 q 308 662 283 656 q 389 668 332 668 l 393 668 l 393 529 l 368 529 q 345 526 353 529 q 319 503 338 522 q 269 451 300 485 q 235 410 243 422 q 224 380 226 397 q 222 315 222 363 q 224 270 222 283 q 235 244 226 257 q 269 197 243 231 q 315 139 303 153 q 338 122 328 125 q 368 118 347 118 l 393 118 l 393 -21 l 389 -21 q 292 -12 319 -19 q 240 20 265 -6 q 151 125 214 46 q 101 192 114 172 q 86 236 89 213 q 83 319 83 260 m 408 319 q 411 420 408 393 q 426 467 414 447 q 478 526 439 486 q 580 631 551 606 q 633 662 608 656 q 714 668 657 668 l 718 668 l 718 529 l 693 529 q 670 526 678 529 q 644 503 663 522 q 594 451 625 485 q 560 410 568 422 q 549 380 551 397 q 547 315 547 363 q 549 270 547 283 q 560 244 551 257 q 594 197 568 232 q 640 139 628 153 q 663 122 653 125 q 693 118 672 118 l 718 118 l 718 -21 l 714 -21 q 617 -12 644 -19 q 565 20 590 -6 q 476 125 539 46 q 426 192 439 172 q 411 236 414 213 q 408 319 408 260 z "},"»":{"ha":801,"x_min":83,"x_max":718,"o":"m 393 319 q 390 236 393 260 q 375 192 388 213 q 325 125 363 172 q 237 20 263 46 q 184 -12 211 -6 q 88 -21 157 -19 l 83 -21 l 83 118 l 108 118 q 139 122 129 118 q 161 139 149 125 q 207 197 174 153 q 242 244 233 232 q 252 270 250 257 q 254 315 254 283 q 252 380 254 363 q 242 410 250 397 q 207 451 233 422 q 158 503 176 485 q 131 526 139 522 q 108 529 124 529 l 83 529 l 83 668 l 88 668 q 169 662 144 668 q 222 631 193 656 q 324 526 250 606 q 375 467 363 486 q 390 420 388 447 q 393 319 393 393 m 718 319 q 715 236 718 260 q 700 192 713 213 q 650 125 688 172 q 562 20 588 46 q 509 -12 536 -6 q 413 -21 482 -19 l 408 -21 l 408 118 l 433 118 q 463 122 454 118 q 489 144 472 125 q 532 197 506 164 q 567 244 558 231 q 577 270 575 257 q 579 315 579 283 q 577 380 579 363 q 567 410 575 397 q 532 451 558 422 q 483 503 501 485 q 456 526 464 522 q 433 529 449 529 l 408 529 l 408 668 l 413 668 q 494 662 469 668 q 547 631 518 656 q 649 526 575 606 q 700 467 688 486 q 715 420 713 447 q 718 319 718 393 z "},"‹":{"ha":833,"x_min":0,"x_max":0,"o":""},"›":{"ha":833,"x_min":0,"x_max":0,"o":""},"„":{"ha":363,"x_min":69,"x_max":293,"o":"m 293 67 l 293 67 q 281 14 293 47 q 247 -51 268 -19 q 179 -126 217 -101 l 122 -126 l 122 -101 l 146 0 q 115 6 124 1 q 93 24 106 10 q 72 53 75 44 q 69 92 69 61 q 74 121 69 111 q 93 143 78 131 q 125 162 113 158 q 182 165 138 165 q 238 162 225 165 q 268 143 251 158 q 290 117 286 126 q 293 82 293 108 l 293 67 z "},"“":{"ha":642,"x_min":69,"x_max":572,"o":"m 269 822 q 290 793 288 801 q 293 754 293 785 q 289 725 293 735 q 269 703 285 715 q 238 684 250 688 q 181 681 225 681 q 124 684 138 681 q 94 703 111 688 q 73 728 76 719 q 69 764 69 738 l 69 779 l 69 779 q 82 831 69 799 q 115 897 94 863 q 183 972 146 947 l 240 972 l 240 947 l 217 846 q 248 840 239 844 q 269 822 257 836 m 572 754 q 568 725 572 735 q 549 703 564 715 q 517 684 529 688 q 460 681 504 681 q 403 684 417 681 q 374 703 390 688 q 352 728 356 719 q 349 764 349 738 l 349 779 l 349 779 q 361 831 349 799 q 394 897 374 863 q 463 972 425 947 l 519 972 l 519 947 l 496 846 q 527 840 518 844 q 549 822 536 836 q 569 793 567 801 q 572 754 572 785 z "},"”":{"ha":642,"x_min":69,"x_max":572,"o":"m 268 950 q 290 925 286 935 q 293 889 293 915 l 293 874 l 293 874 q 281 822 293 854 q 247 756 268 790 q 179 681 217 706 l 122 681 l 122 706 l 146 807 q 115 813 124 808 q 93 831 106 817 q 72 860 75 851 q 69 899 69 868 q 74 928 69 918 q 93 950 78 938 q 125 969 113 965 q 182 972 138 972 q 238 969 225 972 q 268 950 251 965 m 572 874 l 572 874 q 560 822 572 854 q 526 756 547 790 q 458 681 496 706 l 401 681 l 401 706 l 425 807 q 394 813 403 808 q 372 831 385 817 q 351 860 354 851 q 349 899 349 868 q 353 928 349 918 q 372 950 357 938 q 404 969 392 965 q 461 972 417 972 q 517 969 504 972 q 547 950 531 965 q 569 925 565 935 q 572 889 572 915 l 572 874 z "},"‘":{"ha":363,"x_min":69,"x_max":293,"o":"m 293 754 q 289 725 293 735 q 269 703 285 715 q 238 684 250 688 q 181 681 225 681 q 124 684 138 681 q 94 703 111 688 q 73 728 76 719 q 69 764 69 738 l 69 779 l 69 779 q 82 831 69 799 q 115 897 94 863 q 183 972 146 947 l 240 972 l 240 947 l 217 846 q 248 840 239 844 q 269 822 257 836 q 290 793 288 801 q 293 754 293 785 z "},"’":{"ha":363,"x_min":69,"x_max":293,"o":"m 293 874 l 293 874 q 281 822 293 854 q 247 756 268 790 q 179 681 217 706 l 122 681 l 122 706 l 146 807 q 115 813 124 808 q 93 831 106 817 q 72 860 75 851 q 69 899 69 868 q 74 928 69 918 q 93 950 78 938 q 125 969 113 965 q 182 972 138 972 q 238 969 225 972 q 268 950 251 965 q 290 925 286 935 q 293 889 293 915 l 293 874 z "},"‚":{"ha":833,"x_min":69,"x_max":293,"o":"m 293 67 l 293 67 q 281 14 293 47 q 247 -51 268 -19 q 179 -126 217 -101 l 122 -126 l 122 -101 l 146 0 q 115 6 124 1 q 93 24 106 10 q 72 53 75 44 q 69 92 69 61 q 74 121 69 111 q 93 143 78 131 q 125 162 113 158 q 182 165 138 165 q 238 162 225 165 q 268 143 251 158 q 290 117 286 126 q 293 82 293 108 l 293 67 z "},"¢":{"ha":833,"x_min":0,"x_max":0,"o":""},"¤":{"ha":833,"x_min":0,"x_max":0,"o":""},"$":{"ha":833,"x_min":0,"x_max":0,"o":""},"€":{"ha":833,"x_min":0,"x_max":0,"o":""},"£":{"ha":833,"x_min":0,"x_max":0,"o":""},"¥":{"ha":833,"x_min":0,"x_max":0,"o":""},"+":{"ha":917,"x_min":83,"x_max":833,"o":"m 833 493 l 833 354 l 528 354 l 528 49 l 389 49 l 389 354 l 83 354 l 83 493 l 389 493 l 389 799 l 528 799 l 528 493 l 833 493 z "},"−":{"ha":833,"x_min":0,"x_max":0,"o":""},"×":{"ha":833,"x_min":0,"x_max":0,"o":""},"÷":{"ha":833,"x_min":0,"x_max":0,"o":""},"=":{"ha":1028,"x_min":83,"x_max":944,"o":"m 83 614 l 944 614 l 944 475 l 83 475 l 83 614 m 83 378 l 944 378 l 944 239 l 83 239 l 83 378 z "},"≠":{"ha":833,"x_min":0,"x_max":0,"o":""},">":{"ha":833,"x_min":0,"x_max":0,"o":""},"<":{"ha":833,"x_min":0,"x_max":0,"o":""},"≥":{"ha":833,"x_min":0,"x_max":0,"o":""},"≤":{"ha":833,"x_min":0,"x_max":0,"o":""},"±":{"ha":833,"x_min":0,"x_max":0,"o":""},"≈":{"ha":833,"x_min":0,"x_max":0,"o":""},"~":{"ha":833,"x_min":0,"x_max":0,"o":""},"¬":{"ha":833,"x_min":0,"x_max":0,"o":""},"∅":{"ha":833,"x_min":0,"x_max":0,"o":""},"∞":{"ha":833,"x_min":0,"x_max":0,"o":""},"∫":{"ha":833,"x_min":0,"x_max":0,"o":""},"∏":{"ha":833,"x_min":0,"x_max":0,"o":""},"∑":{"ha":833,"x_min":0,"x_max":0,"o":""},"√":{"ha":833,"x_min":0,"x_max":0,"o":""},"∂":{"ha":833,"x_min":0,"x_max":0,"o":""},"%":{"ha":1631,"x_min":83,"x_max":1547,"o":"m 410 513 q 278 517 317 513 q 215 534 239 521 q 157 582 192 547 q 106 638 119 619 q 88 678 92 657 q 83 747 83 700 q 88 826 83 801 q 106 871 92 851 q 158 926 121 890 q 216 973 193 960 q 278 990 239 986 q 410 993 317 993 q 543 990 504 993 q 605 973 582 986 q 663 926 628 960 q 714 870 700 890 q 731 826 728 850 q 736 747 735 803 q 733 677 736 699 q 715 637 729 656 q 664 582 701 618 q 603 534 626 547 q 540 517 579 521 q 410 513 501 513 m 1150 972 l 1326 972 l 450 0 l 274 0 l 1150 972 m 410 643 q 504 646 476 644 q 547 654 532 647 q 578 678 563 661 q 607 710 601 697 q 613 754 613 722 q 607 790 613 779 q 575 828 601 801 q 544 851 558 844 q 501 860 529 858 q 410 863 474 863 q 317 860 344 863 q 274 851 289 858 q 242 828 258 844 q 213 792 218 804 q 207 747 207 779 q 213 715 207 725 q 240 681 218 704 q 274 655 258 663 q 317 645 289 647 q 410 643 344 643 m 1221 0 q 1089 4 1128 0 q 1026 22 1050 8 q 968 69 1003 35 q 917 126 931 107 q 899 166 903 144 q 894 235 894 188 q 899 314 894 289 q 917 358 903 339 q 969 414 932 378 q 1027 460 1004 447 q 1089 477 1050 474 q 1221 481 1128 481 q 1354 477 1315 481 q 1416 460 1393 474 q 1474 414 1439 447 q 1525 358 1511 378 q 1542 314 1539 338 q 1547 235 1546 290 q 1544 165 1547 186 q 1526 124 1540 143 q 1475 69 1513 106 q 1414 22 1438 35 q 1351 4 1390 8 q 1221 0 1313 0 m 1221 131 q 1315 133 1286 131 q 1358 142 1343 135 q 1389 165 1372 149 q 1418 197 1413 185 q 1424 242 1424 210 q 1418 278 1424 267 q 1386 315 1413 289 q 1355 339 1369 332 q 1313 348 1340 346 q 1221 350 1285 350 q 1128 348 1156 350 q 1085 339 1100 346 q 1053 315 1069 332 q 1024 279 1029 292 q 1018 235 1018 267 q 1024 202 1018 213 q 1051 168 1029 192 q 1085 142 1069 150 q 1128 133 1100 135 q 1221 131 1156 131 z "},"‰":{"ha":833,"x_min":0,"x_max":0,"o":""},"◊":{"ha":833,"x_min":0,"x_max":0,"o":""},"@":{"ha":1803,"x_min":83,"x_max":1719,"o":"m 1506 903 q 1663 733 1625 785 q 1710 615 1700 681 q 1719 372 1719 549 l 1717 94 q 1715 -6 1717 21 q 1703 -50 1713 -32 q 1664 -106 1693 -68 q 1602 -182 1619 -164 q 1568 -205 1585 -200 q 1511 -210 1551 -210 l 1444 -210 q 1383 -205 1400 -210 q 1351 -182 1367 -200 q 1296 -106 1335 -164 q 1256 -38 1265 -58 q 1243 6 1246 -18 q 1240 94 1240 31 l 1240 119 q 1149 47 1186 68 q 1058 20 1111 26 q 890 14 1006 14 q 726 21 776 14 q 640 50 676 28 q 544 132 604 72 q 458 226 482 194 q 428 291 435 258 q 421 393 421 324 q 428 498 421 464 q 459 563 435 532 q 546 656 483 594 q 640 735 604 713 q 727 764 676 757 q 890 771 778 771 q 1063 765 1008 771 q 1153 740 1117 760 q 1240 671 1190 719 l 1240 764 l 1379 764 l 1379 94 q 1383 33 1379 47 q 1410 -17 1388 19 q 1433 -52 1424 -39 q 1450 -67 1443 -65 q 1475 -69 1457 -69 q 1501 -67 1493 -69 q 1522 -52 1510 -65 q 1550 -17 1533 -39 q 1570 13 1565 3 q 1576 42 1575 22 q 1578 94 1578 63 l 1581 369 q 1573 573 1581 518 q 1534 669 1565 628 q 1406 803 1503 711 q 1263 926 1310 896 q 1149 963 1217 956 q 890 972 1081 971 q 644 964 708 971 q 538 930 579 957 q 414 819 497 903 q 278 679 311 717 q 235 615 244 642 q 225 533 226 589 q 222 257 222 400 q 231 191 222 214 q 276 129 240 168 q 425 -22 313 90 q 553 -147 519 -117 q 609 -184 586 -176 q 678 -192 632 -192 l 964 -193 q 998 -189 985 -193 q 1051 -162 1011 -185 q 1154 -99 1090 -139 l 1231 -214 q 1119 -299 1150 -278 q 1060 -324 1088 -319 q 964 -329 1032 -329 l 678 -331 q 544 -322 583 -331 q 460 -276 506 -312 q 300 -124 415 -239 q 141 44 179 -3 q 93 129 103 90 q 83 260 83 168 l 83 533 q 93 660 83 622 q 142 742 103 697 q 303 906 181 788 q 472 1054 418 1018 q 603 1100 526 1090 q 890 1111 679 1110 q 1198 1100 1117 1110 q 1335 1053 1279 1090 q 1506 903 1390 1017 m 1156 224 q 1215 288 1199 267 q 1235 329 1231 308 q 1240 392 1240 350 q 1235 458 1240 436 q 1213 502 1231 481 q 1153 565 1196 524 q 1094 611 1118 599 q 1028 628 1069 624 q 890 632 986 632 q 765 628 804 632 q 703 611 726 624 q 649 567 681 599 q 587 500 604 522 q 565 456 569 478 q 560 392 560 435 q 565 329 560 350 q 586 287 569 308 q 647 221 603 265 q 705 174 681 188 q 767 157 729 161 q 890 153 804 153 q 1028 157 988 153 q 1094 174 1069 161 q 1156 224 1119 188 z "},"&":{"ha":833,"x_min":0,"x_max":0,"o":""},"¶":{"ha":833,"x_min":0,"x_max":0,"o":""},"§":{"ha":833,"x_min":0,"x_max":0,"o":""},"©":{"ha":833,"x_min":0,"x_max":0,"o":""},"®":{"ha":833,"x_min":0,"x_max":0,"o":""},"™":{"ha":2281,"x_min":83,"x_max":2197,"o":"m 436 0 l 436 833 l 83 833 l 83 974 l 931 974 l 931 833 l 576 833 l 576 0 l 436 0 m 2031 972 l 2197 972 l 2197 0 l 2058 0 l 2058 760 l 1721 243 l 1563 243 l 1236 754 l 1236 0 l 1097 0 l 1097 972 l 1264 972 l 1647 375 l 2031 972 z "},"°":{"ha":833,"x_min":0,"x_max":0,"o":""},"|":{"ha":833,"x_min":0,"x_max":0,"o":""},"¦":{"ha":833,"x_min":0,"x_max":0,"o":""},"†":{"ha":833,"x_min":0,"x_max":0,"o":""},"‡":{"ha":833,"x_min":0,"x_max":0,"o":""},"^":{"ha":833,"x_min":0,"x_max":0,"o":""}}}
